<svg width="551" height="470" viewBox="0 0 551 470" fill="none" xmlns="http://www.w3.org/2000/svg">
<path d="M498.005 461.581C556.593 410.825 582.685 270.082 487.555 201.067C424.575 155.385 385.406 181.445 314.555 151.224C228.06 114.341 215.168 2.90499 109.959 57.7375C54.2208 86.7773 15.5815 168.625 8.78389 261.648C2.12195 352.745 30.4599 415.252 88.3694 458.025C224.359 464.617 360.621 463.422 498.005 461.581Z" fill="#DFF3FC"/>
<path d="M257.314 61.2486C248.465 101.73 281.326 141.804 315.946 158.418C350.567 175.046 390.268 173.064 427.357 165.137C443.361 161.721 459.812 156.914 472.244 145.29C484.677 133.665 491.884 113.481 485.071 97.1758C479.058 82.7965 464.419 75.4311 450.463 71.65C436.508 67.869 421.685 66.3228 409.252 58.3671C397.463 50.819 389.099 38.3232 378.846 28.4278C359.902 10.169 333.29 1.11693 308.66 6.89396C284.017 12.671 264.836 26.8395 257.314 61.2486Z" fill="#DFF3FC"/>
<path d="M522.389 247.443V216.818H512.196C510.972 211.464 509.105 206.415 506.714 201.764L513.922 193.54L494.913 171.882L487.695 180.094C483.614 177.37 479.182 175.244 474.482 173.849V162.237H447.602V173.849C442.903 175.244 438.471 177.37 434.389 180.094L427.171 171.882L408.162 193.54L415.369 201.764C412.978 206.414 411.124 211.463 409.888 216.818H399.697V247.443H409.888C411.124 252.797 412.978 257.846 415.369 262.497L408.162 270.721L427.171 292.379L434.389 284.167C438.47 286.891 442.902 289.004 447.602 290.412V302.024H474.482V290.412C479.181 289.004 483.612 286.891 487.695 284.167L494.913 292.379L513.922 270.721L506.714 262.497C509.105 257.847 510.971 252.798 512.196 247.443H522.389ZM461.051 258.664C448.186 258.664 437.755 246.78 437.755 232.122C437.755 217.48 448.186 205.597 461.051 205.597C473.902 205.597 484.332 217.48 484.332 232.122C484.332 246.781 473.902 258.664 461.051 258.664Z" fill="#A2C7EB"/>
<path d="M441.162 324.176L436.049 308.989L430.994 311.198C429.493 308.809 427.725 306.709 425.762 304.921L427.963 299.28L414.92 292.66L412.712 298.296C410.234 297.83 407.681 297.737 405.117 298.063L403.178 292.304L389.848 298.131L391.787 303.889C389.69 305.6 387.847 307.614 386.278 309.85L381.327 307.343L375.516 322.203L380.463 324.719C380.055 327.543 379.979 330.45 380.259 333.372L375.204 335.581L380.318 350.769L385.372 348.559C386.88 350.947 388.641 353.049 390.604 354.837L388.403 360.477L401.446 367.098L403.654 361.461C406.133 361.928 408.684 362.014 411.249 361.695L413.188 367.453L426.518 361.627L424.579 355.868C426.675 354.151 428.519 352.144 430.089 349.907L435.039 352.415L440.85 337.555L435.903 335.039C436.313 332.215 436.394 329.307 436.108 326.386L441.162 324.176ZM412.617 343.038C406.238 345.827 399.08 342.195 396.632 334.925C394.187 327.664 397.375 319.51 403.755 316.721C410.129 313.935 417.285 317.569 419.731 324.829C422.178 332.097 418.99 340.252 412.617 343.038Z" stroke="#A2C7EB" stroke-miterlimit="10"/>
<path d="M397.487 270.904L394.032 260.642L390.617 262.135C389.603 260.519 388.407 259.101 387.081 257.892L388.568 254.08L379.754 249.608L378.261 253.417C376.586 253.102 374.861 253.039 373.129 253.26L371.819 249.369L362.812 253.306L364.122 257.197C362.704 258.352 361.46 259.714 360.399 261.224L357.053 259.53L353.127 269.572L356.471 271.272C356.194 273.181 356.142 275.145 356.332 277.12L352.917 278.612L356.373 288.875L359.788 287.382C360.807 288.996 361.997 290.415 363.324 291.624L361.837 295.436L370.651 299.909L372.143 296.099C373.819 296.414 375.542 296.473 377.276 296.257L378.586 300.148L387.593 296.21L386.283 292.32C387.699 291.16 388.945 289.802 390.005 288.293L393.351 289.987L397.276 279.945L393.933 278.244C394.209 276.335 394.265 274.37 394.071 272.397L397.487 270.904ZM378.2 283.647C373.889 285.531 369.053 283.077 367.399 278.165C365.747 273.258 367.901 267.75 372.211 265.865C376.517 263.983 381.353 266.437 383.005 271.344C384.66 276.255 382.505 281.765 378.2 283.647Z" stroke="#A2C7EB" stroke-miterlimit="10"/>
<path d="M394.351 91.2273C394.351 106.616 388.038 120.333 378.217 129.197C370.985 135.736 361.841 139.615 351.88 139.615C341.945 139.615 332.8 135.736 325.543 129.197C315.709 120.333 309.409 106.616 309.409 91.2273C309.409 64.504 328.425 42.8381 351.88 42.8381C375.335 42.8381 394.351 64.504 394.351 91.2273Z" fill="#0097D8" stroke="#0097D8" stroke-miterlimit="10"/>
<path d="M353.593 91.0332C361.214 89.9615 366.629 82.055 365.688 73.3733C364.748 64.6916 357.808 58.5225 350.187 59.5941C342.567 60.6658 337.152 68.5724 338.092 77.254C339.033 85.9357 345.973 92.1048 353.593 91.0332Z" fill="white"/>
<path d="M378.217 123.094C370.985 129.632 361.841 133.513 351.88 133.513C341.945 133.513 332.8 129.634 325.543 123.094C328.26 109.478 330.759 97.7225 333.361 94.744C337.034 90.5596 346.791 88.118 351.866 88.118C356.942 88.118 367.158 91.0824 369.045 93.233C372.898 97.6058 376.214 109.681 378.217 123.094Z" fill="white"/>
<path d="M290.843 210.512V186.617C290.843 180.095 295.482 174.81 301.206 174.81H367.283C373.007 174.81 377.646 180.095 377.646 186.617V210.512C377.646 217.034 373.007 222.319 367.283 222.319H301.218C295.494 222.333 290.843 217.034 290.843 210.512Z" fill="#0097D8"/>
<path d="M318.749 209.261L286.772 244.753L338.599 214.912" fill="#0097D8"/>
<path d="M298.862 186.027V185.9C298.862 184.93 299.553 184.143 300.404 184.143H333.072C333.924 184.143 334.614 184.93 334.614 185.9V186.027C334.614 186.997 333.924 187.784 333.072 187.784H300.404C299.553 187.784 298.862 186.997 298.862 186.027Z" fill="white"/>
<path d="M336.083 186.027V185.9C336.083 184.93 336.773 184.143 337.625 184.143H366.135C366.987 184.143 367.677 184.93 367.677 185.9V186.027C367.677 186.997 366.987 187.784 366.135 187.784H337.625C336.773 187.784 336.083 186.997 336.083 186.027Z" fill="white"/>
<path d="M323.635 194.025V193.898C323.635 192.928 324.326 192.141 325.177 192.141H366.135C366.987 192.141 367.678 192.928 367.678 193.898V194.025C367.678 194.994 366.987 195.782 366.135 195.782H325.177C324.326 195.782 323.635 194.994 323.635 194.025Z" fill="white"/>
<path d="M298.862 194.025V193.898C298.862 192.928 299.553 192.141 300.404 192.141H318.7C319.551 192.141 320.242 192.928 320.242 193.898V194.025C320.242 194.994 319.551 195.782 318.7 195.782H300.404C299.553 195.782 298.862 194.994 298.862 194.025Z" fill="white"/>
<path d="M329.322 202.022V201.896C329.322 200.926 330.013 200.139 330.864 200.139H366.135C366.986 200.139 367.677 200.926 367.677 201.896V202.022C367.677 202.992 366.986 203.779 366.135 203.779H330.864C330.013 203.779 329.322 202.992 329.322 202.022Z" fill="white"/>
<path d="M298.862 202.022V201.896C298.862 200.926 299.553 200.139 300.404 200.139H324.77C325.621 200.139 326.312 200.926 326.312 201.896V202.022C326.312 202.992 325.621 203.779 324.77 203.779H300.404C299.553 203.779 298.862 202.992 298.862 202.022Z" fill="white"/>
<path d="M298.862 210.02V209.894C298.862 208.924 299.553 208.137 300.404 208.137H309.447C310.298 208.137 310.989 208.924 310.989 209.894V210.02C310.989 210.99 310.298 211.777 309.447 211.777H300.404C299.553 211.777 298.862 210.99 298.862 210.02Z" fill="white"/>
<path d="M314.184 210.02V209.894C314.184 208.924 314.875 208.137 315.726 208.137H366.135C366.986 208.137 367.677 208.924 367.677 209.894V210.02C367.677 210.99 366.986 211.777 366.135 211.777H315.726C314.875 211.777 314.184 210.99 314.184 210.02Z" fill="white"/>
<path d="M127.748 176.687C137.269 153.375 128.4 125.683 107.939 114.836C87.4782 103.989 63.1733 114.093 53.6526 137.405C44.1319 160.717 53.0006 188.409 73.4615 199.256C93.9224 210.104 118.227 199.999 127.748 176.687Z" fill="#0097D8"/>
<path d="M84.3415 190.542C89.501 188.477 92.2145 182.038 90.4023 176.16C88.59 170.281 82.9382 167.189 77.7787 169.254C72.6192 171.319 69.9057 177.758 71.7179 183.637C73.5302 189.515 79.182 192.607 84.3415 190.542Z" fill="white"/>
<path d="M75.8586 183.945L75.3799 176.791L80.5799 172.742L86.2574 175.847L86.7348 183.002L81.536 187.052L75.8586 183.945Z" fill="#0097D8"/>
<path d="M103.638 144.814C108.787 142.717 111.469 136.261 109.628 130.394C107.787 124.528 102.121 121.472 96.9718 123.569C91.8226 125.666 89.1406 132.122 90.9813 137.989C92.822 143.856 98.4884 146.911 103.638 144.814Z" fill="white"/>
<path d="M95.4041 137.565L95.7446 128.467L101.761 122.475L107.439 125.582L107.098 134.679L101.08 140.67L95.4041 137.565Z" fill="#0097D8"/>
<path d="M87.9154 174.682L80.3418 170.539L85.9391 155.826C86.2944 154.893 86.6805 153.975 87.0975 153.075L93.6743 138.898L101.248 143.042L95.8493 157.531C95.4323 158.651 94.9685 159.749 94.4626 160.822L87.9154 174.682Z" fill="white"/>
<path d="M119.069 182.094C120.528 181.322 143.972 182.541 143.972 182.541L127.073 164.864L119.069 182.094Z" fill="#0097D8"/>
<path d="M222.526 78.3261C231.332 55.1327 221.967 28.1978 201.611 18.1653C181.254 8.13288 157.613 18.8019 148.808 41.9953C140.002 65.1887 149.366 92.1236 169.723 102.156C190.08 112.189 213.721 101.519 222.526 78.3261Z" fill="#0097D8"/>
<path d="M187.016 21.1708H184.333V59.5971H187.016V21.1708Z" fill="white"/>
<path d="M156.04 81.7813L157.566 84.2938L185.673 62.1278L184.147 59.6153L156.04 81.7813Z" fill="white"/>
<path d="M189.371 60.1636C189.371 62.4899 187.716 64.3748 185.675 64.3748C183.633 64.3748 181.979 62.4899 181.979 60.1636C181.979 57.8373 183.633 55.9524 185.675 55.9524C187.716 55.9524 189.371 57.8387 189.371 60.1636Z" fill="white"/>
<path d="M294.705 369.992C292.323 328.161 308.386 284.869 335.441 260.102C336.28 302.143 320.378 344.691 294.705 369.992Z" fill="#A2C7EB"/>
<path d="M331.024 271.361C319.625 295.565 309.768 320.894 301.576 347.024C291.62 378.749 283.786 412.455 266.737 439.049" stroke="#6F8BBF" stroke-miterlimit="10" stroke-linecap="round"/>
<path d="M286.167 396.305C299.861 361.404 327.039 335.035 357.006 327.571C344.249 364.974 315.554 393.508 286.167 396.305Z" fill="#A2C7EB"/>
<path d="M349.653 335.259C329.186 355.781 308.374 375.727 287.216 395.082" stroke="#6F8BBF" stroke-miterlimit="10" stroke-linecap="round"/>
<path d="M278.086 426.708C296.382 395.574 330.136 379.325 358.066 388.209C337.526 418.949 303.698 435.24 278.086 426.708Z" fill="#A2C7EB"/>
<path d="M351.368 390.458C327.385 407.55 301.514 420.172 274.842 427.762" stroke="#6F8BBF" stroke-miterlimit="10" stroke-linecap="round"/>
<path d="M287.969 385.721C293.816 350.665 285.045 311.589 265.515 285.74C257.509 320.191 265.145 360.56 287.969 385.721Z" fill="#A2C7EB"/>
<path d="M267.526 294.68C271.375 327.29 278.222 357.833 288.832 387.688" stroke="#6F8BBF" stroke-miterlimit="10" stroke-linecap="round"/>
<path d="M277.926 415.576C275.434 379.536 259.223 345.689 235.512 327.009C236.881 346.097 241.335 364.496 248.404 381.223C256.534 400.437 268.476 412.624 277.926 415.576Z" fill="#A2C7EB"/>
<path d="M239.028 334.304C248.355 364.355 261.777 392.214 278.519 416.334" stroke="#6F8BBF" stroke-miterlimit="10" stroke-linecap="round"/>
<path d="M461.043 406.931C473.985 368.572 503.754 337.452 536.582 327.979C522.197 365.817 492.835 396.319 461.043 406.931Z" fill="#A2C7EB"/>
<path d="M528.625 335.948C509.848 352.211 492.009 370.189 475.379 389.656C455.171 413.299 436.11 439.668 411.474 455.438" stroke="#6F8BBF" stroke-miterlimit="10" stroke-linecap="round"/>
<path d="M444.031 426.399C468.692 401.674 502.199 390.823 531.364 398.104C506.64 425.499 471.011 437.573 444.031 426.399Z" fill="#A2C7EB"/>
<path d="M522.099 401.548C496.623 410.319 471.049 418.401 445.388 425.808" stroke="#6F8BBF" stroke-miterlimit="10" stroke-linecap="round"/>
<path d="M425.945 449.732C453.321 430.503 488.999 431.726 510.49 452.627C481.276 470.45 445.511 469.227 425.945 449.732Z" fill="#A2C7EB"/>
<path d="M503.766 451.503C476.428 455.579 449.003 454.792 422.713 449.156" stroke="#6F8BBF" stroke-miterlimit="10" stroke-linecap="round"/>
<path d="M449.434 417.81C467.212 389.305 473.516 350.412 465.558 318.308C446.078 345.267 438.306 384.779 449.434 417.81Z" fill="#A2C7EB"/>
<path d="M464.115 327.191C455.775 358.03 450.853 388.419 449.496 419.961" stroke="#6F8BBF" stroke-miterlimit="10" stroke-linecap="round"/>
<path d="M429.819 439.738C440.576 406.481 438.43 368.783 424.193 341.121C418.543 358.761 415.853 377.217 416.088 395.405C416.347 416.292 422.515 432.71 429.819 439.738Z" fill="#A2C7EB"/>
<path d="M424.662 349.245C422.096 380.351 423.934 411.415 430.053 440.68" stroke="#6F8BBF" stroke-miterlimit="10" stroke-linecap="round"/>
<path d="M94.2629 339.864C81.0698 293.888 44.2527 256.74 1.42261 246.198C19.4296 285.972 52.0891 317.628 94.2629 339.864Z" fill="#A2C7EB"/>
<path d="M96.497 346.996C67.5977 328.376 31.3888 324.27 0 336.041C29.1139 352.61 63.6104 357.226 96.497 346.996Z" fill="#A2C7EB"/>
<path d="M104.49 356.966C73.2565 352.034 40.5488 360.806 15.1829 380.913C43.9464 392.826 78.454 385.101 104.49 356.966Z" fill="#A2C7EB"/>
<path d="M114.229 378.746C83.299 378.6 52.8884 395.348 34.7087 422.542C48.4743 425.685 63.0923 423.805 75.7204 417.29C88.3485 410.773 98.9286 399.653 114.229 378.746Z" fill="#A2C7EB"/>
<path d="M136.034 415.186C105.536 409.229 73.0406 419.996 51.05 443.35C64.1765 449.03 78.8735 449.938 92.3023 445.903C105.732 441.869 117.824 432.908 136.034 415.186Z" fill="#A2C7EB"/>
<path d="M103.108 342.042C82.9696 311.114 77.5044 269.438 88.9457 233.983C97.6827 250.84 105.222 268.664 108.74 287.608C112.259 306.554 111.575 326.753 103.108 342.042Z" fill="#A2C7EB"/>
<path d="M115.412 371.881C110.643 339.022 120.503 304.197 141.332 280.4C143.729 314.395 134.6 349.026 115.412 371.881Z" fill="#A2C7EB"/>
<path d="M10.7983 254.436C72.0931 299.119 120.03 365.72 145.334 441.389" stroke="#6F8BBF" stroke-miterlimit="10" stroke-linecap="round"/>
<path d="M90.8491 250.288C98.3043 284.78 102.841 319.995 104.375 355.313" stroke="#6F8BBF" stroke-miterlimit="10" stroke-linecap="round"/>
<path d="M136.752 293.741C134.309 321.569 126.762 348.767 114.704 373.266" stroke="#6F8BBF" stroke-miterlimit="10" stroke-linecap="round"/>
<path d="M12.9019 336.844C41.0029 342.931 69.5654 346.232 98.1328 346.716" stroke="#6F8BBF" stroke-miterlimit="10" stroke-linecap="round"/>
<path d="M29.8354 378.18C55.7467 376.035 81.2385 368.883 104.802 357.135" stroke="#6F8BBF" stroke-miterlimit="10" stroke-linecap="round"/>
<path d="M45.3589 417.577C69.2679 403.989 93.1793 390.384 117.088 376.797" stroke="#6F8BBF" stroke-miterlimit="10" stroke-linecap="round"/>
<path d="M60.9097 441.572C92.1258 434.71 101.401 426.521 136.046 415.189" stroke="#6F8BBF" stroke-miterlimit="10" stroke-linecap="round"/>
<path d="M258.532 376.43C258.532 376.43 261.234 404.64 264.257 406.903C269.66 410.965 332.209 420.355 332.209 420.355L330.161 438.895C330.161 438.895 244.493 447.666 240.854 442.788C234.537 434.326 223.434 393.508 223.434 393.508L258.532 376.43Z" fill="#E06A58"/>
<path d="M217.229 303.802L224.15 284.869C224.15 284.869 242.926 294.919 249.119 307.33C255.744 320.599 263.85 391.146 263.85 391.146C263.85 391.146 230.7 399.847 224.606 396.15C218.512 392.454 217.229 303.802 217.229 303.802Z" fill="#F2AE30"/>
<path d="M164.513 215.924C159.664 213.9 154.532 212.129 149.338 212.579C144.145 213.028 138.84 216.163 137.076 221.364C135.817 225.046 136.397 229.39 134.411 232.707C132.511 235.883 128.736 237.205 125.207 237.472C121.667 237.753 118.101 237.219 114.585 237.739C103.729 239.383 95.9812 252.821 99.5466 263.827C100.965 268.212 103.877 272.401 103.211 276.969C102.507 281.861 98.0045 285.079 96.1539 289.62C93.6989 295.664 96.6351 302.987 101.483 307.105C106.332 311.21 112.636 312.77 118.755 313.81C127.181 315.244 135.879 315.918 144.206 313.894C152.534 311.87 160.491 306.866 164.797 299.051C166.709 295.593 167.868 291.686 170.089 288.439C174.678 281.734 182.808 279.134 189.211 274.383C196.206 269.168 201.339 259.02 197.218 251.078C193.246 243.446 182.907 241.745 178.762 234.225C177.047 231.118 176.64 227.422 175.53 224.034C174.395 220.633 171.681 218.918 164.513 215.924Z" fill="#0A2240"/>
<path d="M192.764 309.551C193.986 311.153 195.429 312.91 197.428 313.065C199.537 313.234 201.301 311.533 202.659 309.888C209.666 301.441 214.292 291.067 216.167 280.371C214.428 279.246 212.75 278.164 211.233 277.152C209.826 276.196 208.765 274.861 208.161 273.3C207.741 272.148 207.593 270.939 207.704 269.674C208.691 259.104 209.567 253.214 212.824 242.49C197.354 238.512 182.759 233.789 174.37 225.805C173.346 230.725 172.137 240.353 169.559 249.897C166.807 260.003 162.514 269.997 155.235 274.298C169.522 283.913 182.266 295.86 192.764 309.551Z" fill="#F9A07B"/>
<path d="M207.704 269.689C207.593 270.954 207.741 272.176 208.161 273.315C199.007 285.965 178.54 269.436 169.559 249.912C172.137 240.368 173.346 230.739 174.37 225.82C182.747 233.804 197.354 238.54 212.824 242.504C209.567 253.229 208.691 259.104 207.704 269.689Z" fill="#E06A58"/>
<path d="M233.192 422.618C231.169 437.883 245.628 454.314 245.986 462.467C215.279 462.467 150.954 464.603 118.2 459.529C116.707 450.111 132.881 428.929 132.881 408.013C132.881 405.244 132.782 402.208 132.585 398.947C132.067 389.614 130.858 378.51 129.513 367.125C125.861 336.581 121 303.915 124.59 297.14C131.622 283.941 148.068 274.973 156.222 271.122C159.023 269.801 160.849 269.084 160.984 268.999C171.212 288.875 192.024 305.826 199.883 305.067C202.066 304.87 208.543 302.298 212.824 277.742C214.49 278.825 216.155 279.823 217.808 280.792C225.938 285.614 233.562 289.592 235.758 295.79C241.557 312.109 247.244 353.251 245.986 367.884C244.715 382.642 239.509 393.915 235.857 408.73C235.006 412.202 234.229 415.885 233.599 419.849C233.439 420.734 233.316 421.662 233.192 422.618Z" fill="#FFC73C"/>
<path d="M245.986 462.466C215.279 462.466 150.954 464.603 118.2 459.529C116.707 450.111 132.881 428.929 132.881 408.013C132.881 405.244 132.782 402.208 132.585 398.947C132.067 389.614 130.858 378.51 129.513 367.125C135.324 374.11 143.799 344.593 147.549 353.237C167.844 399.903 183.845 412.174 211.652 412.174C219.943 412.174 227.591 410.867 235.857 408.73C235.006 412.202 234.229 415.885 233.599 419.849C233.451 420.748 233.316 421.676 233.192 422.632C231.169 437.868 245.628 454.3 245.986 462.466Z" fill="#FFBB33"/>
<path d="M217.808 280.792C216.488 291.714 212.577 306.431 201.203 310.31C185.831 315.553 163.588 282.831 156.222 271.122C159.023 269.801 160.849 269.084 160.984 268.999C171.212 288.875 192.024 305.826 199.883 305.067C202.066 304.87 208.543 302.298 212.824 277.742C214.49 278.811 216.155 279.809 217.808 280.792Z" fill="#FCE172"/>
<path d="M224.125 446.035L224.014 458.221L415.236 459.515L415.631 445.698L224.125 446.035Z" fill="#325F73"/>
<path d="M498.115 337.312L493.859 332.392L354.575 331.352L284.699 446.485L288.351 449.83L498.115 337.312Z" fill="#325F73"/>
<path d="M357.265 335.611L288.351 449.83L419.986 450.575L498.115 337.312L357.265 335.611Z" fill="#0B2D50"/>
<path d="M390.525 408.519C398.988 408.519 405.848 404.611 405.848 399.791C405.848 394.97 398.988 391.062 390.525 391.062C382.063 391.062 375.203 394.97 375.203 399.791C375.203 404.611 382.063 408.519 390.525 408.519Z" fill="#3C738C"/>
<path d="M226.953 222.858C229.124 209.586 237.111 200.15 244.794 201.781C252.478 203.413 256.946 215.492 254.775 228.764C252.603 242.036 244.617 251.472 236.933 249.841C229.251 248.211 224.782 236.129 226.953 222.858Z" fill="#56C4F9"/>
<path d="M254.795 187.109C253.363 198.663 248.836 211.398 242.236 225.468C239.916 213.942 238.436 199.9 236.388 185.858C234.303 171.788 231.65 157.718 227.049 146.22C226.012 143.676 224.89 141.244 223.668 138.995C226.395 138.7 229.158 138.995 231.786 139.825C235.894 141.076 239.743 143.493 242.889 146.726C248.12 152.025 251.624 159.25 253.709 166.868C255.424 173.194 255.732 179.912 254.795 187.109Z" fill="#0B2D50"/>
<path d="M247.047 199.057C246.973 201.334 246.837 203.653 246.652 205.958C243.839 243.347 230.059 268.999 208.975 268.999C179.206 268.999 159.911 230.964 159.911 193.701C159.911 156.945 179.675 130.337 202.807 133.415C216.143 135.158 225.889 140.204 232.81 147.598C237.387 152.517 240.694 158.463 242.951 165.224C245.53 172.8 246.776 181.374 247.035 190.609C247.035 190.637 247.059 190.665 247.059 190.693C247.158 193.42 247.133 196.203 247.047 199.057Z" fill="#F9A07B"/>
<path d="M247.047 199.057C246.159 195.444 244.839 191.916 243.038 188.754C225.482 199.211 204.559 203.245 184.721 199.422C180.946 203.006 177.257 206.534 173.544 210.063C173.618 193.055 173.827 181.543 179.65 173.306C185.116 165.575 194.233 162.666 202.869 161.401C212.59 159.953 222.472 160.009 232.169 161.611C235.882 162.202 239.731 163.115 242.964 165.252C245.542 172.828 246.788 181.402 247.047 190.637C247.047 190.665 247.072 190.693 247.072 190.721C247.158 193.42 247.133 196.203 247.047 199.057Z" fill="#E06A58"/>
<path d="M251.34 176.033C247.257 179.969 242.137 183.23 236.388 185.873C220.029 193.393 198.773 195.88 182.204 194.967C174.062 215.348 170.768 222.657 168.683 240.438C160.726 231.934 154.249 216.36 152.324 204.117C150.424 191.917 150.609 179.112 153.595 167.122C158.295 148.216 170.151 138.096 178.367 133.177C180.415 131.897 182.266 131.012 183.697 130.365C194.196 125.741 206.027 126.163 216.797 129.916C222.669 131.996 227.616 135.51 231.774 139.839C240.175 148.484 245.369 160.192 248.725 168.963C249.786 171.648 250.637 174.08 251.34 176.033Z" fill="#0B2D50"/>
<path d="M254.795 187.109C254.116 183.019 253.105 179.055 251.673 175.232C250.872 173.067 249.885 170.973 248.737 168.949C244.999 162.258 239.559 156.748 232.983 154.316C231.108 151.322 229.134 148.624 227.061 146.234C219.597 137.59 210.838 132.642 201.561 130.913C193.838 129.493 185.807 130.295 178.392 133.162C180.44 131.883 182.291 130.997 183.722 130.351C194.22 125.726 206.051 126.148 216.822 129.901C222.694 131.981 227.641 135.495 231.799 139.825C235.907 141.076 239.756 143.493 242.902 146.726C248.133 152.025 251.636 159.25 253.721 166.868C255.424 173.194 255.732 179.912 254.795 187.109Z" fill="#225570"/>
<path d="M191.691 210.034C197.193 206.45 202.905 204.834 210.912 208.165" stroke="#0B2D50" stroke-width="2" stroke-miterlimit="10" stroke-linecap="round"/>
<path d="M229.368 209.781C234.081 205.775 241.064 205.368 244.703 209.781" stroke="#0B2D50" stroke-width="2" stroke-miterlimit="10" stroke-linecap="round"/>
<path d="M223.681 230.219C224.162 233.058 223.903 239.341 222.718 242.166" stroke="#CC454E" stroke-width="2" stroke-miterlimit="10" stroke-linecap="round"/>
<path d="M205.089 232.131C206.343 232.131 207.359 230.306 207.359 228.054C207.359 225.803 206.343 223.978 205.089 223.978C203.835 223.978 202.819 225.803 202.819 228.054C202.819 230.306 203.835 232.131 205.089 232.131Z" fill="#262D40"/>
<path d="M234.759 230.233C236.013 230.233 237.029 228.408 237.029 226.157C237.029 223.905 236.013 222.08 234.759 222.08C233.506 222.08 232.489 223.905 232.489 226.157C232.489 228.408 233.506 230.233 234.759 230.233Z" fill="#262D40"/>
<path d="M220.868 247.718C220.868 247.718 220.424 248.702 219.572 250.038C218.24 252.076 215.97 254.887 212.873 255.983H212.861C211.553 256.461 210.135 256.63 208.555 256.307C203.917 255.365 202.695 250.488 202.473 246.735C202.424 246.004 202.424 245.329 202.436 244.711C202.461 243.192 202.609 242.18 202.609 242.18C209.999 246.819 220.868 247.718 220.868 247.718Z" fill="#CC454E"/>
<path d="M220.868 247.718C220.868 247.718 220.424 248.702 219.573 250.038C215.797 249.982 208.074 247.775 202.437 244.711C202.461 243.192 202.609 242.18 202.609 242.18C209.999 246.819 220.868 247.718 220.868 247.718Z" fill="white"/>
<path d="M212.861 255.969C211.553 256.447 210.135 256.616 208.556 256.293C203.917 255.351 202.695 250.473 202.473 246.72C204.719 247.03 206.89 248.014 208.691 249.574C210.579 251.218 212.022 253.453 212.861 255.969Z" fill="#E8729B"/>
<path d="M168.757 203.583C168.757 203.583 168.498 186.055 174.901 168.639C182.932 146.782 199.303 137.435 215.181 136.803C234.315 136.029 246.295 150.662 246.295 150.662C246.295 150.662 240.064 138.138 227.777 134.54C219.709 132.178 207.532 131.799 197.761 136.325C187.694 140.977 175.148 153.895 170.608 167.543C166.08 181.191 163.872 202.444 163.872 202.444L168.757 203.583Z" fill="#3D86E0"/>
<path d="M168.429 249.208C176.622 248.238 182.217 235.985 180.927 221.841C179.636 207.697 171.948 197.018 163.755 197.988C155.562 198.959 149.966 211.211 151.257 225.355C152.548 239.5 160.236 250.179 168.429 249.208Z" fill="#56C4F9"/>
<path d="M159.604 206.281C164.893 205.376 170.315 213.236 171.713 223.837C173.111 234.439 169.957 243.767 164.667 244.673C159.378 245.578 153.956 237.718 152.559 227.117C151.161 216.516 154.315 207.187 159.604 206.281Z" fill="#3D86E0"/>
<path d="M215.304 269.52C219.692 269.52 223.249 266.996 223.249 263.883C223.249 260.77 219.692 258.247 215.304 258.247C210.916 258.247 207.359 260.77 207.359 263.883C207.359 266.996 210.916 269.52 215.304 269.52Z" fill="#3A92C9"/>
<path d="M175.394 245.034C175.394 245.034 187.065 262.126 207.359 263.883" stroke="#3A92C9" stroke-width="2" stroke-miterlimit="10" stroke-linecap="round"/>
<path d="M224.014 413.496L223.249 435.971C223.249 435.971 151.905 460.33 140.123 452.628C134.374 448.861 129.007 428.142 124.998 407.915C120.803 386.663 118.114 365.972 118.114 365.972L159.936 356.639C159.936 356.639 159.961 385.693 161.379 402.49C161.885 408.745 162.613 413.299 163.588 414.044C167.276 416.813 224.014 413.496 224.014 413.496Z" fill="#F9A07B"/>
<path d="M161.379 402.461C153.78 405.273 139.111 409.616 124.998 407.901C120.803 386.648 118.114 365.958 118.114 365.958L159.936 356.625C159.936 356.611 159.961 385.664 161.379 402.461Z" fill="#E06A58"/>
<path d="M221.978 413.72C232.588 411.134 250.551 404.921 258.002 402.785C263.295 401.267 277.075 409.391 280.714 417.051C282.306 420.397 283.811 439.344 278.296 437.391C275.533 436.407 275.989 428.282 275.126 424.965C274.423 422.266 272.177 419.652 268.76 417.403C271.042 423.883 270.956 429.533 270.709 436.533C270.66 438.079 270.574 439.696 269.92 441.031C269.253 442.366 267.822 443.322 266.589 442.732C265.33 442.141 264.899 440.356 264.615 438.796C263.64 433.399 262.653 428.001 262.258 421.901C262.357 427.903 262.246 433.919 261.913 439.907C261.666 444.489 259.668 447.005 257.213 446.204C256.115 445.852 255.671 444.7 255.202 443.182C254.462 446.119 252.611 449.366 250.218 448.129C248.762 447.384 247.861 441.396 248.12 435.24C243.531 438.487 238.349 439.864 232.378 440.174C227.024 440.455 221.547 439.316 218.327 435.17C218.647 428.69 220.523 419.104 221.978 413.72Z" fill="#F9A07B"/>
<path d="M255.313 442.254C255.671 437.39 255.3 432.457 254.215 427.762" stroke="#CC454E" stroke-miterlimit="10" stroke-linecap="round"/>
<path d="M155.236 309.495C152.201 299.754 141.085 279.823 141.085 279.823C141.085 279.823 124.122 287.863 118.101 301.511C107.911 324.619 113.093 390.964 113.093 390.964C126.824 397.514 154.384 397.612 166.117 395.729C166.117 395.729 161.318 328.962 155.236 309.495Z" fill="#FFC73C"/>
<path d="M157.395 313.571C162.021 338.802 164.501 362.331 165.29 385.383" stroke="#F2AE30" stroke-miterlimit="10" stroke-linecap="round"/>
<path d="M520.47 455.509H34.05V469.41H520.47V455.509Z" fill="#0B2D50"/>
</svg>
