<svg width="532" height="608" viewBox="0 0 532 608" fill="none" xmlns="http://www.w3.org/2000/svg">
<path d="M89.8843 72.1818H198.405C201.709 72.1818 204.387 69.5041 204.387 66.2005V5.98133C204.387 2.67776 201.709 0 198.405 0H89.8843C86.5807 0 83.903 2.67776 83.903 5.98133V66.2005C83.903 69.5041 86.5807 72.1818 89.8843 72.1818Z" fill="#D1D0F4"/>
<path d="M95.0793 60.7514H123.3C124.824 60.7514 126.063 59.5111 126.063 57.9885V14.1949C126.063 12.6708 124.823 11.432 123.3 11.432H95.0793C93.5552 11.432 92.3163 12.6722 92.3163 14.1949V57.9885C92.3163 59.5111 93.5552 60.7514 95.0793 60.7514ZM123.3 13.1348C123.885 13.1348 124.36 13.6102 124.36 14.1949V57.9885C124.36 58.5731 123.885 59.0485 123.3 59.0485H95.0793C94.4946 59.0485 94.0192 58.5731 94.0192 57.9885V14.1949C94.0192 13.6102 94.4946 13.1348 95.0793 13.1348H123.3Z" fill="#B1ABDE"/>
<path d="M136.139 12.2834H189.297C190.435 12.2834 191.356 13.2058 191.356 14.3424C191.356 15.4805 190.434 16.4015 189.297 16.4015H136.139C135.003 16.4015 134.08 15.4791 134.08 14.3424C134.08 13.2044 135.003 12.2834 136.139 12.2834Z" fill="#B1ABDE"/>
<path d="M136.139 26.7818H189.297C190.435 26.7818 191.356 27.7042 191.356 28.8409C191.356 29.979 190.434 30.8999 189.297 30.8999H136.139C135.003 30.8999 134.08 29.9776 134.08 28.8409C134.08 27.7042 135.003 26.7818 136.139 26.7818Z" fill="#B1ABDE"/>
<path d="M136.139 41.2818H189.297C190.435 41.2818 191.356 42.2042 191.356 43.3409C191.356 44.4789 190.434 45.3999 189.297 45.3999H136.139C135.003 45.3999 134.08 44.4775 134.08 43.3409C134.08 42.2028 135.003 41.2818 136.139 41.2818Z" fill="#B1ABDE"/>
<path d="M136.139 55.7803H189.297C190.435 55.7803 191.356 56.7027 191.356 57.8393C191.356 58.9774 190.434 59.8984 189.297 59.8984H136.139C135.003 59.8984 134.08 58.976 134.08 57.8393C134.08 56.7027 135.003 55.7803 136.139 55.7803Z" fill="#B1ABDE"/>
<path d="M247.714 608C134.351 608 42.4528 603.304 42.4528 597.512C42.4528 591.719 134.351 587.023 247.714 587.023C361.077 587.023 452.975 591.719 452.975 597.512C452.975 603.304 361.077 608 247.714 608Z" fill="#D1D0F4"/>
<g opacity="0.4">
<path d="M292.13 102.826C292.13 102.826 376.394 103.793 391.2 165.581C405.067 223.446 353.334 253.861 415.001 295.061C476.669 336.26 443.66 483.161 327.828 450.895C211.997 418.629 226.389 335.741 140.264 327.361C11.6586 314.851 40.9026 90.4451 292.13 102.826Z" fill="#D1D0F4"/>
</g>
<path d="M88.2654 167.435C81.4964 172.946 76.5014 180.36 72.545 188.064C68.1459 196.628 64.9346 205.789 62.5094 215.094C61.1485 220.315 60.0502 225.602 59.203 230.931C59.0994 231.582 58.1089 231.305 58.2111 230.657C59.7465 220.984 62.1022 211.42 65.3873 202.19C68.5277 193.367 72.5138 184.702 77.9928 177.072C80.7415 173.244 83.879 169.688 87.5388 166.707C88.0482 166.292 88.7791 167.016 88.2654 167.435Z" fill="#A9B7DE"/>
<path d="M448.328 330.272C453.763 346.423 454.801 363.945 451.429 380.644C450.465 385.414 449.133 390.101 447.458 394.669C447.231 395.287 446.246 394.992 446.475 394.369C452.323 378.42 453.834 360.977 450.853 344.254C450.021 339.591 448.838 334.999 447.328 330.512C447.116 329.88 448.118 329.649 448.328 330.272Z" fill="#A9B7DE"/>
<path d="M275.256 96.4179C253.974 95.6062 232.644 97.2821 211.751 101.414C211.221 101.519 211.005 100.703 211.538 100.597C232.504 96.4505 253.912 94.7604 275.267 95.5736C275.81 95.5949 275.8 96.4392 275.256 96.4179Z" fill="#A9B7DE"/>
<path d="M179.928 49.0753C179.928 49.0753 176.58 37.9939 174.451 36.6302C172.321 35.2679 171.219 35.993 167.884 33.1677C164.549 30.3395 165.394 35.5162 166.554 36.8913C167.718 38.2635 169.967 37.8946 171.991 41.5132C172.638 42.6726 173.164 43.734 173.582 44.6436C172.676 42.9578 170.946 40.6334 168.088 39.789C163.211 38.3473 162.685 39.3534 160.864 41.0421C160.047 41.8027 160.255 42.4711 160.733 42.9762C161.363 43.6446 162.361 43.7936 163.201 43.419C164.088 43.0231 165.531 42.7407 167.099 43.9185C169.666 45.8399 169.178 47.7372 169.178 47.7372C169.178 47.7372 167.342 45.3503 165.355 44.777C163.367 44.2051 161.397 44.8224 159.899 46.3976C158.4 47.9742 158.933 50.1382 162.28 48.4127C164.355 47.3441 164.413 48.1047 165.731 50.1212C165.392 49.6785 164.348 48.695 162.372 49.9793C159.91 51.5786 160.254 52.9849 161.206 55.2355C162.16 57.4875 163.51 57.7032 163.905 56.138C164.258 54.7346 164.074 54.1357 164.031 54.0236C164.209 54.2705 166.029 56.9086 167.221 60.9827C168.473 65.2626 175.74 70.7359 182.534 66.5312C185.547 65.4683 187.146 62.8587 187.537 59.8943C188.903 54.7487 185.689 51.221 184.666 49.704C183.102 47.3852 184.112 43.1465 183.244 41.0137C182.375 38.8808 179.847 42.8088 179.767 45.5845C179.691 48.3644 179.928 49.0753 179.928 49.0753Z" fill="#FF6665"/>
<path d="M264.755 110.139C264.755 110.139 215.951 109.702 210.843 109.698C205.738 109.693 183.575 62.1067 183.575 62.1067L174.808 66.1339C174.808 66.1339 185.31 122.561 197.381 133.465C209.451 144.371 254.081 139.783 254.081 139.783C254.081 139.783 270.153 124.977 264.755 110.139Z" fill="#FF6665"/>
<path d="M173.327 53.1155C174.325 58.349 178.219 62.7055 183.326 64.2452C183.763 64.3772 183.577 65.064 183.137 64.9306C177.807 63.3242 173.685 58.779 172.642 53.3043C172.557 52.8573 173.242 52.6657 173.327 53.1155Z" fill="#CF3736"/>
<path d="M177.373 49.8928C173.682 51.4821 170.39 53.7682 167.619 56.6801C167.302 57.0122 166.8 56.5084 167.116 56.1778C169.927 53.2262 173.271 50.8918 177.016 49.2798C177.431 49.101 177.793 49.7126 177.373 49.8928Z" fill="#CF3736"/>
<path d="M210.252 110.387C207.635 111.833 205.611 113.993 204.327 116.692C204.091 117.187 203.358 116.754 203.592 116.262C204.933 113.441 207.088 111.162 209.822 109.652C210.303 109.387 210.733 110.122 210.252 110.387Z" fill="#CF3736"/>
<path d="M207.333 112.317C205.318 112.104 203.454 112.781 202.064 114.261C201.688 114.661 201.086 114.058 201.462 113.66C202.986 112.038 205.118 111.233 207.333 111.467C207.872 111.522 207.878 112.375 207.333 112.317Z" fill="#CF3736"/>
<path d="M365.773 123.431C360.032 126.587 357.077 131.696 352.099 135.899C347.299 139.952 344.345 144.304 338.197 146.105C334.568 147.168 330.537 147.961 326.472 148.233C313.485 135.153 305.29 102.636 306.936 89.6164C308.662 75.9721 330.881 40.0997 330.881 40.0997C330.881 40.0997 348.479 47.0148 351.696 67.9289C354.913 88.843 345.664 97.6908 362.958 104.126C371.82 107.424 378.322 113.83 381.326 120.714C377.412 120.809 369.416 121.429 365.773 123.431Z" fill="#222943"/>
<path d="M269.994 205.687C276.619 205.915 282.931 205.876 289.49 204.732C293.476 204.037 298.833 202.95 301.667 199.813C302.832 204.088 304.007 208.129 304.976 211.37C305.086 211.734 305.192 212.091 305.296 212.435C306.449 216.266 307.241 218.739 307.241 218.739C297.457 218.849 287.783 218.402 278.216 217.398C273.943 216.954 269.694 216.395 265.466 215.727C261.407 215.084 257.366 214.34 253.347 213.496C249.224 212.629 245.122 211.654 241.044 210.573C237.865 209.731 234.696 208.823 231.54 207.851C231.54 207.851 233.774 202.998 235.634 197.276C245.47 203.652 258.763 205.298 269.994 205.687Z" fill="#222943"/>
<path d="M232.917 204.732C232.917 204.732 263.028 220.028 301.489 210.414C301.489 210.414 317.804 227.543 310.307 247.172C300.043 274.044 240.458 273.116 223.171 248.87C215.451 238.043 232.917 204.732 232.917 204.732Z" fill="#222943"/>
<path d="M233.342 206.906C235.852 208.247 238.424 209.474 241.045 210.57C243.853 211.746 246.724 212.775 249.647 213.651C258.912 216.421 268.589 217.669 278.217 217.396C287.424 217.133 296.582 215.478 305.297 212.432C305.193 212.088 305.087 211.731 304.978 211.367C292.328 215.803 278.734 217.234 265.468 215.722C261.387 215.258 257.333 214.515 253.349 213.492C246.633 211.77 240.11 209.26 233.961 205.971C233.326 205.633 232.708 206.567 233.342 206.906Z" fill="#41577E"/>
<path d="M242.665 201.489C241.365 203.814 240.574 206.291 240.278 208.938C240.199 209.65 239.081 209.594 239.16 208.875C239.477 206.035 240.337 203.365 241.731 200.871C242.083 200.243 243.016 200.862 242.665 201.489Z" fill="#41577E"/>
<path d="M296.508 203.24C297.795 206.483 298.544 209.826 298.769 213.307C298.815 214.024 297.697 213.956 297.65 213.245C297.439 209.968 296.722 206.802 295.51 203.751C295.248 203.086 296.243 202.571 296.508 203.24Z" fill="#41577E"/>
<path d="M276.153 206.513C277.043 209.604 277.33 212.725 277.02 215.927C276.951 216.642 275.834 216.584 275.902 215.864C276.202 212.765 275.919 209.741 275.058 206.75C274.859 206.056 275.955 205.823 276.153 206.513Z" fill="#41577E"/>
<path d="M258.113 208.993C258.028 210.52 256.722 211.688 255.195 211.604C253.668 211.519 252.5 210.214 252.584 208.687C252.669 207.16 253.975 205.992 255.502 206.076C257.029 206.161 258.198 207.466 258.113 208.993Z" fill="#41577E"/>
<path d="M322.447 473.097L361.101 483.713L362.168 500.003L312.315 494.409L322.447 473.097Z" fill="#FF6665"/>
<path d="M366.903 540.608L377.65 483.402C376.791 483.15 375.906 482.948 374.995 482.777C374.595 482.701 374.197 482.657 373.797 482.575C365.985 480.956 349.548 478.029 351.289 482.069C356.858 486.75 352.51 495.469 352.51 495.469C352.51 495.469 343.922 499.778 345.468 504.094C347.015 508.409 352.178 504.779 355.111 510.505C357.352 514.893 354.746 519.371 354.766 525.241C354.769 527.036 355.023 528.946 355.734 531.035C357.394 535.901 360.566 538.302 363.105 539.491C365.223 540.464 366.903 540.608 366.903 540.608Z" fill="#14B74E"/>
<path d="M353.618 507.43C357.56 505.916 360.264 508.823 360.727 512.531C361.259 516.79 359.525 521.276 355.221 522.709C354.852 522.832 354.693 522.249 355.061 522.127C358.723 520.907 360.365 517.257 360.208 513.586C360.132 511.84 359.741 509.537 358.232 508.435C357.009 507.541 355.162 507.48 353.778 508.012C353.415 508.151 353.259 507.568 353.618 507.43Z" fill="#057F42"/>
<path d="M359.384 480.573C359.947 485.615 363.512 489.584 368.46 490.708C369.032 490.837 369.198 489.943 368.627 489.814C364.079 488.781 360.808 485.129 360.29 480.498C360.225 479.917 359.318 479.988 359.384 480.573Z" fill="white"/>
<path d="M366.903 540.607L377.65 483.402C376.791 483.15 375.906 482.948 374.995 482.777L373.801 482.552L363.106 539.491C365.223 540.464 366.903 540.607 366.903 540.607Z" fill="white"/>
<path d="M368.262 513.695C368.262 513.695 362.878 503.772 364.712 495.673C366.546 487.574 374.023 482.724 374.023 482.724L368.262 513.695Z" fill="white"/>
<path d="M178.255 427.697C178.37 428.106 178.513 428.527 178.688 428.948C180.499 433.422 185.363 438.604 192.254 444.156C227.908 472.876 317.693 511.366 317.693 511.366L342.463 461.414C342.463 461.414 247.512 419.356 240.404 408.117C233.303 396.873 275.419 262.858 275.419 262.858L221.636 235.96C207.823 272.486 171.466 403.566 178.255 427.697Z" fill="#222943"/>
<path d="M178.688 428.949C180.499 433.423 185.363 438.606 192.254 444.157C196.092 440.14 202.76 432.241 196.89 426.027C191.779 420.613 183.8 424.372 178.688 428.949Z" fill="#FF6665"/>
<path d="M252.143 262.462C252.472 262.462 252.687 262.418 252.709 262.412C253.034 262.341 253.24 262.021 253.169 261.697C253.098 261.372 252.776 261.168 252.454 261.237C252.42 261.245 251.485 261.42 250.604 260.728C249.609 259.947 249.03 258.324 248.931 256.034C248.65 249.584 253.111 235.484 253.155 235.342C253.256 235.026 253.081 234.688 252.765 234.587C252.448 234.487 252.111 234.661 252.008 234.978C251.821 235.565 247.439 249.425 247.729 256.086C247.846 258.795 248.573 260.683 249.888 261.696C250.721 262.337 251.593 262.462 252.143 262.462Z" fill="#41577E"/>
<path d="M215.803 255.607C215.813 255.607 215.822 255.607 215.832 255.607C236.133 254.68 235.44 223.446 235.43 223.131C235.42 222.805 235.154 222.548 234.83 222.548C234.823 222.548 234.817 222.548 234.812 222.548C234.48 222.558 234.218 222.835 234.228 223.167C234.238 223.471 234.898 253.532 215.776 254.405C215.444 254.42 215.188 254.701 215.203 255.033C215.217 255.355 215.483 255.607 215.803 255.607Z" fill="#41577E"/>
<path d="M326.866 463.105C326.995 462.786 326.841 462.422 326.521 462.292C326.218 462.169 325.908 462.044 325.596 461.915C325.277 461.783 324.912 461.936 324.781 462.254C324.651 462.573 324.803 462.938 325.122 463.069C325.437 463.198 325.748 463.325 326.053 463.449C326.13 463.48 326.209 463.494 326.287 463.494C326.534 463.496 326.767 463.348 326.866 463.105ZM322.185 461.163C322.321 460.846 322.173 460.479 321.857 460.343C320.696 459.846 319.443 459.301 318.135 458.723C317.818 458.584 317.451 458.728 317.312 459.043C317.172 459.358 317.316 459.727 317.631 459.866C318.945 460.445 320.201 460.991 321.366 461.491C321.447 461.525 321.529 461.542 321.611 461.542C321.852 461.542 322.082 461.4 322.185 461.163ZM314.736 457.898C314.878 457.583 314.736 457.214 314.422 457.072C313.209 456.527 311.974 455.966 310.721 455.394C310.409 455.251 310.037 455.389 309.894 455.704C309.751 456.017 309.89 456.388 310.203 456.531C311.456 457.103 312.695 457.665 313.91 458.211C313.994 458.248 314.08 458.266 314.165 458.266C314.404 458.265 314.632 458.129 314.736 457.898ZM307.336 454.527C307.48 454.214 307.344 453.843 307.03 453.699C305.809 453.134 304.578 452.562 303.347 451.986C303.034 451.84 302.663 451.974 302.516 452.287C302.37 452.599 302.505 452.971 302.819 453.117C304.053 453.693 305.285 454.266 306.508 454.831C306.593 454.871 306.681 454.889 306.769 454.889C307.003 454.891 307.229 454.756 307.336 454.527ZM299.964 451.09C300.111 450.778 299.976 450.406 299.666 450.259C298.435 449.678 297.209 449.098 295.992 448.52C295.681 448.373 295.308 448.505 295.16 448.817C295.012 449.129 295.144 449.501 295.457 449.649C296.674 450.228 297.902 450.808 299.133 451.388C299.22 451.429 299.309 451.448 299.399 451.448C299.633 451.449 299.857 451.316 299.964 451.09ZM292.617 447.607C292.766 447.296 292.634 446.923 292.323 446.774C291.083 446.18 289.858 445.593 288.658 445.015C288.349 444.866 287.974 444.997 287.825 445.308C287.676 445.618 287.806 445.992 288.117 446.141C289.318 446.718 290.542 447.306 291.785 447.9C291.872 447.941 291.964 447.961 292.054 447.961C292.286 447.961 292.511 447.831 292.617 447.607ZM285.288 444.083C285.438 443.772 285.307 443.399 284.998 443.249C283.738 442.638 282.516 442.045 281.341 441.473C281.03 441.322 280.657 441.452 280.507 441.761C280.356 442.072 280.486 442.445 280.795 442.596C281.971 443.168 283.193 443.761 284.455 444.371C284.543 444.414 284.635 444.434 284.726 444.434C284.957 444.436 285.18 444.306 285.288 444.083ZM277.972 440.527C278.124 440.218 277.995 439.843 277.686 439.691C276.376 439.051 275.153 438.451 274.034 437.902C273.725 437.748 273.35 437.877 273.199 438.187C273.047 438.496 273.175 438.871 273.484 439.023C274.602 439.572 275.827 440.172 277.137 440.814C277.225 440.856 277.318 440.877 277.41 440.877C277.643 440.877 277.865 440.75 277.972 440.527ZM270.67 436.941C270.823 436.632 270.695 436.257 270.387 436.104C268.074 434.96 266.731 434.29 266.731 434.29C266.423 434.137 266.047 434.262 265.893 434.57C265.74 434.878 265.865 435.254 266.174 435.407C266.174 435.407 267.518 436.078 269.835 437.222C269.923 437.266 270.019 437.287 270.111 437.287C270.339 437.289 270.561 437.161 270.67 436.941Z" fill="#41577E"/>
<path d="M331.316 457.55C324.157 473.9 316.417 489.991 308.115 505.791C307.694 506.59 308.906 507.302 309.328 506.501C317.631 490.701 325.37 474.609 332.529 458.26C332.888 457.438 331.678 456.723 331.316 457.55Z" fill="#41577E"/>
<path d="M263.421 541.44L267.729 579.453L251.918 583.51L239.304 547.581L263.421 541.44Z" fill="#FF6665"/>
<path d="M212.886 595.658H271.091C271.182 594.769 271.216 593.86 271.216 592.932C271.216 592.525 271.187 592.126 271.194 591.718C271.343 583.741 271.185 567.046 267.537 569.504C263.965 575.841 254.592 573.176 254.592 573.176C254.592 573.176 248.771 565.532 244.815 567.849C240.858 570.166 245.38 574.57 240.294 578.509C236.396 581.522 231.513 579.788 225.748 580.892C223.984 581.225 222.154 581.828 220.232 582.912C215.757 585.443 213.983 589.002 213.282 591.718C212.716 593.981 212.886 595.658 212.886 595.658Z" fill="#14B74E"/>
<path d="M243.146 576.389C245.063 579.694 243.584 582.854 240.214 584.236C235.885 586.013 230.681 585.189 228.213 580.961C227.929 580.474 228.683 580.035 228.967 580.52C230.872 583.785 234.595 584.82 238.147 583.968C241.541 583.157 244.478 580.426 242.391 576.828C242.109 576.342 242.863 575.902 243.146 576.389Z" fill="#057F42"/>
<path d="M270.499 577.185C265.647 578.67 262.405 582.907 262.215 587.976C262.192 588.562 263.102 588.56 263.124 587.976C263.3 583.316 266.285 579.426 270.742 578.062C271.298 577.89 271.061 577.012 270.499 577.185Z" fill="white"/>
<path d="M212.886 595.658H271.091C271.182 594.769 271.216 593.861 271.216 592.932V591.718H213.283C212.716 593.981 212.886 595.658 212.886 595.658Z" fill="white"/>
<path d="M239.586 592.027C239.586 592.027 248.346 584.903 256.643 585.211C264.941 585.519 271.087 591.973 271.087 591.973L239.586 592.027Z" fill="white"/>
<path d="M257.778 254.305C257.778 254.305 208.677 388.36 207.204 431.444C205.729 474.528 234.006 554.794 234.006 554.794L281.885 551.056C281.885 551.056 259.813 455.959 265.553 411.856C271.291 367.753 311.74 290.796 311.74 242.161L257.778 254.305Z" fill="#222943"/>
<path d="M208.446 424.182C208.446 424.182 227.86 423.152 225.154 434.963C222.448 446.772 208.446 444.436 208.446 444.436C208.446 444.436 207.674 431.399 208.446 424.182Z" fill="#FF6665"/>
<path d="M263.927 425.526C263.572 446.955 265.671 468.26 269.786 489.283C269.959 490.17 271.314 489.794 271.141 488.91C267.048 468.007 264.979 446.832 265.331 425.526C265.347 424.621 263.941 424.621 263.927 425.526Z" fill="#41577E"/>
<path d="M271.836 541.423C272.171 541.344 272.38 541.008 272.301 540.673C272.045 539.587 271.733 538.255 271.372 536.705C271.294 536.369 270.957 536.16 270.623 536.238C270.287 536.316 270.078 536.653 270.156 536.987C270.517 538.538 270.829 539.872 271.086 540.959C271.154 541.247 271.409 541.44 271.693 541.44C271.74 541.44 271.788 541.435 271.836 541.423ZM269.987 533.485C270.324 533.409 270.534 533.074 270.456 532.737C270.17 531.497 269.868 530.172 269.549 528.77C269.472 528.433 269.139 528.222 268.801 528.298C268.465 528.375 268.255 528.71 268.33 529.046C268.649 530.45 268.952 531.777 269.237 533.017C269.303 533.306 269.56 533.502 269.844 533.502C269.892 533.501 269.939 533.497 269.987 533.485ZM268.181 525.547C268.517 525.472 268.729 525.138 268.654 524.801C268.367 523.523 268.07 522.199 267.767 520.831C267.691 520.495 267.358 520.282 267.022 520.357C266.685 520.433 266.472 520.766 266.548 521.102C266.851 522.472 267.148 523.797 267.435 525.074C267.5 525.364 267.758 525.563 268.043 525.563C268.089 525.563 268.134 525.557 268.181 525.547ZM266.413 517.606C266.751 517.532 266.963 517.199 266.89 516.862C266.606 515.568 266.316 514.243 266.023 512.89C265.95 512.554 265.617 512.34 265.28 512.412C264.943 512.484 264.73 512.818 264.802 513.154C265.096 514.508 265.385 515.833 265.671 517.129C265.735 517.42 265.993 517.62 266.279 517.62C266.323 517.62 266.369 517.614 266.413 517.606ZM264.684 509.658C265.022 509.585 265.236 509.253 265.164 508.917C264.884 507.611 264.602 506.285 264.317 504.942C264.246 504.604 263.915 504.389 263.576 504.46C263.238 504.531 263.023 504.863 263.095 505.2C263.38 506.546 263.663 507.873 263.942 509.178C264.005 509.472 264.264 509.672 264.552 509.672C264.596 509.672 264.64 509.666 264.684 509.658ZM262.999 501.702C263.336 501.633 263.552 501.301 263.482 500.963C263.207 499.649 262.933 498.322 262.657 496.984C262.587 496.646 262.258 496.429 261.919 496.499C261.581 496.568 261.364 496.899 261.433 497.237C261.709 498.576 261.984 499.905 262.259 501.22C262.32 501.515 262.58 501.717 262.869 501.717C262.912 501.717 262.956 501.711 262.999 501.702ZM261.357 493.739C261.694 493.671 261.913 493.341 261.845 493.002C261.578 491.681 261.31 490.353 261.045 489.019C260.978 488.681 260.651 488.461 260.311 488.529C259.973 488.596 259.753 488.925 259.82 489.263C260.087 490.598 260.353 491.928 260.622 493.251C260.681 493.547 260.942 493.752 261.233 493.752C261.273 493.752 261.314 493.747 261.357 493.739ZM259.765 485.766C260.102 485.7 260.324 485.372 260.257 485.034C259.997 483.707 259.74 482.376 259.485 481.045C259.42 480.708 259.095 480.485 258.754 480.55C258.415 480.615 258.194 480.942 258.259 481.281C258.514 482.613 258.773 483.946 259.032 485.274C259.09 485.572 259.352 485.779 259.644 485.779C259.684 485.778 259.723 485.774 259.765 485.766ZM258.231 477.779C258.57 477.715 258.792 477.388 258.73 477.051C258.48 475.718 258.235 474.388 257.992 473.063C257.93 472.724 257.605 472.498 257.266 472.561C256.926 472.623 256.702 472.948 256.763 473.287C257.006 474.616 257.251 475.947 257.503 477.281C257.558 477.58 257.82 477.79 258.116 477.79C258.152 477.79 258.191 477.786 258.231 477.779ZM256.766 469.788C257.107 469.728 257.332 469.403 257.273 469.064C257.034 467.723 256.802 466.389 256.574 465.062C256.516 464.722 256.196 464.493 255.854 464.553C255.514 464.611 255.286 464.935 255.344 465.274C255.571 466.602 255.805 467.939 256.044 469.281C256.098 469.584 256.36 469.796 256.658 469.796C256.692 469.798 256.729 469.795 256.766 469.788ZM255.384 461.776C255.724 461.719 255.954 461.398 255.899 461.058C255.676 459.708 255.461 458.372 255.252 457.049C255.198 456.708 254.879 456.477 254.538 456.53C254.198 456.584 253.965 456.903 254.019 457.243C254.229 458.569 254.444 459.908 254.667 461.261C254.718 461.566 254.982 461.783 255.283 461.783C255.314 461.784 255.348 461.782 255.384 461.776ZM254.108 453.745C254.449 453.694 254.684 453.376 254.633 453.036C254.43 451.676 254.236 450.335 254.051 449.017C254.003 448.675 253.685 448.44 253.346 448.485C253.004 448.533 252.766 448.848 252.814 449.19C252.998 450.511 253.193 451.857 253.397 453.22C253.444 453.53 253.709 453.752 254.013 453.752C254.046 453.752 254.077 453.75 254.108 453.745ZM252.972 445.692C253.313 445.648 253.556 445.336 253.512 444.994C253.335 443.609 253.172 442.254 253.025 440.965C252.986 440.623 252.679 440.376 252.334 440.415C251.992 440.453 251.745 440.762 251.785 441.106C251.931 442.4 252.096 443.761 252.275 445.153C252.314 445.468 252.584 445.698 252.893 445.698C252.919 445.696 252.946 445.695 252.972 445.692ZM252.041 437.611C252.384 437.578 252.635 437.273 252.603 436.93C252.469 435.518 252.354 434.16 252.266 432.891C252.242 432.548 251.948 432.285 251.599 432.312C251.256 432.336 250.996 432.636 251.02 432.979C251.111 434.257 251.225 435.627 251.359 437.049C251.391 437.372 251.662 437.614 251.981 437.614C252.001 437.614 252.021 437.614 252.041 437.611ZM251.445 429.497C251.789 429.484 252.059 429.194 252.046 428.849C252.011 427.867 251.994 426.925 251.994 426.048C251.994 425.628 251.998 425.218 252.007 424.821C252.014 424.476 251.74 424.191 251.395 424.184C251.052 424.168 250.765 424.45 250.758 424.795C250.749 425.201 250.746 425.62 250.745 426.048C250.745 426.941 250.763 427.899 250.799 428.895C250.812 429.231 251.088 429.497 251.423 429.497C251.429 429.497 251.438 429.497 251.445 429.497ZM252.28 420.832C252.421 419.647 252.624 418.304 252.885 416.84C252.945 416.499 252.719 416.176 252.38 416.116C252.039 416.055 251.717 416.282 251.656 416.621C251.392 418.109 251.185 419.475 251.042 420.683C251 421.025 251.246 421.336 251.588 421.377C251.613 421.38 251.638 421.381 251.663 421.381C251.972 421.382 252.242 421.15 252.28 420.832ZM253.661 412.865C253.922 411.631 254.219 410.298 254.545 408.906C254.623 408.571 254.416 408.235 254.08 408.155C253.745 408.076 253.409 408.284 253.329 408.621C253.001 410.021 252.702 411.362 252.439 412.607C252.368 412.945 252.584 413.275 252.922 413.346C252.966 413.356 253.008 413.36 253.051 413.36C253.34 413.36 253.599 413.159 253.661 412.865ZM255.503 404.961C255.817 403.709 256.157 402.387 256.516 401.029C256.604 400.695 256.406 400.353 256.072 400.265C255.739 400.177 255.397 400.376 255.309 400.709C254.95 402.072 254.608 403.4 254.293 404.656C254.209 404.991 254.412 405.33 254.747 405.414C254.798 405.426 254.849 405.432 254.899 405.432C255.177 405.434 255.431 405.245 255.503 404.961ZM257.571 397.107C257.921 395.828 258.286 394.522 258.662 393.193C258.756 392.861 258.563 392.516 258.231 392.422C257.898 392.329 257.554 392.522 257.46 392.854C257.083 394.186 256.718 395.494 256.366 396.776C256.275 397.108 256.469 397.453 256.803 397.544C256.858 397.559 256.914 397.566 256.969 397.566C257.243 397.566 257.494 397.385 257.571 397.107ZM259.782 389.289C260.153 388.008 260.535 386.708 260.925 385.391C261.023 385.06 260.834 384.712 260.505 384.615C260.175 384.517 259.827 384.705 259.729 385.036C259.337 386.356 258.956 387.657 258.582 388.941C258.486 389.272 258.678 389.62 259.008 389.715C259.066 389.732 259.125 389.739 259.183 389.739C259.452 389.739 259.702 389.561 259.782 389.289ZM262.09 381.5C262.478 380.217 262.874 378.921 263.275 377.613C263.376 377.284 263.192 376.933 262.861 376.832C262.532 376.732 262.183 376.916 262.08 377.247C261.679 378.557 261.283 379.854 260.894 381.138C260.795 381.468 260.981 381.816 261.311 381.917C261.371 381.935 261.432 381.944 261.493 381.944C261.761 381.944 262.009 381.769 262.09 381.5ZM264.476 373.732C264.876 372.449 265.282 371.156 265.692 369.855C265.796 369.526 265.612 369.175 265.285 369.072C264.957 368.968 264.605 369.15 264.501 369.479C264.091 370.782 263.685 372.076 263.285 373.36C263.183 373.689 263.366 374.04 263.695 374.142C263.758 374.162 263.82 374.17 263.881 374.17C264.145 374.17 264.392 373.999 264.476 373.732ZM266.921 365.982C267.331 364.698 267.745 363.408 268.163 362.114C268.269 361.786 268.089 361.434 267.76 361.328C267.43 361.221 267.08 361.402 266.973 361.729C266.555 363.025 266.142 364.316 265.73 365.602C265.625 365.93 265.807 366.282 266.135 366.387C266.197 366.407 266.261 366.417 266.325 366.417C266.59 366.417 266.836 366.248 266.921 365.982ZM269.414 358.248C269.833 356.964 270.253 355.676 270.677 354.387C270.785 354.059 270.606 353.706 270.278 353.6C269.951 353.492 269.597 353.671 269.491 353.998C269.068 355.29 268.645 356.578 268.228 357.864C268.121 358.192 268.3 358.544 268.628 358.651C268.692 358.673 268.757 358.683 268.821 358.683C269.084 358.68 269.328 358.512 269.414 358.248ZM271.949 350.527C272.374 349.242 272.801 347.956 273.23 346.672C273.339 346.345 273.162 345.991 272.835 345.881C272.508 345.772 272.154 345.949 272.045 346.276C271.617 347.562 271.188 348.849 270.764 350.134C270.654 350.462 270.833 350.815 271.16 350.923C271.225 350.945 271.29 350.954 271.355 350.954C271.618 350.956 271.862 350.79 271.949 350.527ZM274.52 342.813C274.951 341.529 275.383 340.246 275.816 338.968C275.926 338.641 275.75 338.287 275.424 338.176C275.097 338.067 274.743 338.241 274.633 338.568C274.201 339.846 273.769 341.13 273.338 342.415C273.229 342.741 273.405 343.096 273.731 343.205C273.796 343.228 273.864 343.238 273.93 343.238C274.189 343.239 274.432 343.074 274.52 342.813ZM277.12 335.121C277.558 333.832 277.995 332.551 278.431 331.274C278.543 330.947 278.368 330.592 278.042 330.48C277.716 330.368 277.361 330.543 277.249 330.869C276.813 332.146 276.375 333.429 275.938 334.718C275.827 335.044 276.001 335.399 276.328 335.509C276.394 335.532 276.463 335.542 276.528 335.542C276.788 335.544 277.03 335.38 277.12 335.121ZM279.749 327.429C280.193 326.139 280.635 324.858 281.073 323.587C281.185 323.26 281.012 322.905 280.687 322.792C280.361 322.678 280.006 322.851 279.892 323.178C279.453 324.449 279.011 325.732 278.567 327.022C278.455 327.348 278.628 327.703 278.954 327.815C279.021 327.838 279.091 327.849 279.157 327.849C279.417 327.851 279.66 327.688 279.749 327.429ZM282.403 319.747C282.851 318.454 283.297 317.174 283.74 315.908C283.853 315.583 283.681 315.227 283.356 315.113C283.03 315 282.675 315.172 282.56 315.498C282.119 316.765 281.672 318.045 281.224 319.338C281.11 319.663 281.283 320.019 281.608 320.133C281.676 320.157 281.744 320.167 281.812 320.167C282.072 320.167 282.313 320.005 282.403 319.747ZM285.082 312.071C285.536 310.775 285.986 309.495 286.429 308.235C286.544 307.91 286.372 307.554 286.047 307.439C285.722 307.326 285.364 307.496 285.251 307.821C284.807 309.081 284.358 310.361 283.903 311.658C283.789 311.983 283.959 312.339 284.286 312.454C284.354 312.478 284.424 312.489 284.493 312.489C284.75 312.488 284.991 312.328 285.082 312.071ZM287.781 304.402C288.242 303.1 288.695 301.821 289.139 300.569C289.254 300.244 289.085 299.888 288.759 299.772C288.434 299.657 288.076 299.826 287.961 300.152C287.517 301.405 287.063 302.684 286.603 303.986C286.488 304.311 286.659 304.669 286.984 304.784C287.052 304.808 287.123 304.819 287.192 304.819C287.45 304.818 287.692 304.658 287.781 304.402ZM290.503 296.738C290.971 295.425 291.428 294.147 291.871 292.906C291.987 292.582 291.818 292.225 291.493 292.109C291.168 291.993 290.811 292.161 290.694 292.486C290.25 293.727 289.793 295.005 289.325 296.318C289.209 296.643 289.379 297 289.702 297.115C289.772 297.14 289.843 297.152 289.912 297.152C290.171 297.152 290.412 296.993 290.503 296.738ZM293.246 289.078C293.725 287.745 294.185 286.467 294.625 285.248C294.743 284.923 294.574 284.565 294.251 284.449C293.927 284.331 293.568 284.5 293.452 284.824C293.012 286.042 292.55 287.321 292.071 288.655C291.954 288.98 292.123 289.338 292.447 289.454C292.516 289.479 292.587 289.491 292.658 289.491C292.914 289.491 293.154 289.332 293.246 289.078ZM296.01 281.418C296.512 280.03 296.978 278.75 297.402 277.588C297.52 277.264 297.354 276.905 297.029 276.787C296.705 276.67 296.346 276.836 296.229 277.161C295.804 278.324 295.339 279.604 294.837 280.993C294.719 281.317 294.886 281.676 295.211 281.792C295.282 281.818 295.353 281.829 295.424 281.829C295.679 281.831 295.919 281.672 296.01 281.418ZM298.803 273.755C299.712 271.27 300.22 269.899 300.22 269.899C300.34 269.576 300.175 269.217 299.852 269.098C299.527 268.978 299.169 269.143 299.048 269.466C299.048 269.466 298.54 270.839 297.629 273.326C297.511 273.65 297.678 274.009 298.001 274.127C298.072 274.152 298.144 274.165 298.215 274.165C298.471 274.164 298.709 274.007 298.803 273.755Z" fill="#41577E"/>
<path d="M293.504 234.897C289.393 241.762 288.3 250.34 290.872 257.959C293.237 264.971 298.439 270.832 305.079 274.076C305.888 274.472 306.602 273.26 305.789 272.862C299.478 269.78 294.479 264.264 292.225 257.586C289.769 250.305 290.785 242.171 294.716 235.606C295.183 234.829 293.969 234.122 293.504 234.897Z" fill="#41577E"/>
<path d="M232.765 548.685C247.62 547.243 262.476 545.801 277.331 544.359C278.223 544.273 278.232 542.867 277.331 542.955C262.476 544.396 247.62 545.838 232.765 547.28C231.873 547.367 231.864 548.773 232.765 548.685Z" fill="#41577E"/>
<path d="M258.955 236.597C251.509 266.471 242.037 295.799 232.64 325.101C224.554 350.312 215.996 375.554 210.527 401.496C206.823 419.064 204.493 437.602 209.85 455.091C210.114 455.952 211.47 455.585 211.205 454.718C206.331 438.807 207.924 421.959 211.066 405.876C213.477 393.542 216.727 381.403 220.276 369.354C228.481 341.502 237.871 314.014 246.394 286.261C251.406 269.94 256.181 253.54 260.31 236.971C260.529 236.093 259.174 235.718 258.955 236.597Z" fill="#41577E"/>
<path d="M226.086 194.269C226.086 194.269 229.899 197.953 237.468 202.63C237.83 202.856 238.205 203.08 238.586 203.31C244.386 206.797 252.196 210.746 261.994 214.101C262.419 214.25 262.851 214.394 263.289 214.539C270.847 217.041 279.542 219.181 289.376 220.495C289.786 220.547 290.2 220.604 290.615 220.652C298.945 221.698 308.07 222.148 317.984 221.734C317.984 221.734 311.3 218.83 309.807 210.415C309.735 210.016 309.675 209.606 309.63 209.181C309.152 204.845 310.032 199.186 313.616 191.902C316.322 186.409 319.561 180.967 322.92 175.759C333.633 159.149 345.61 144.931 345.607 139.068C345.6 134.145 337.512 126.374 329.491 119.879C327.371 118.162 325.261 116.542 323.301 115.081C317.96 111.1 313.769 108.332 313.769 108.332L294.28 105.063C294.28 105.063 287.406 106.341 279.352 107.734C279.106 107.773 278.861 107.822 278.619 107.863C273.973 108.667 269.002 109.487 264.772 110.115C264.772 110.115 264.764 110.123 264.761 110.139C264.535 110.582 261.375 116.796 258.873 127.192V127.207C258.45 128.944 258.053 130.799 257.687 132.757C257.663 132.878 257.643 132.998 257.619 133.123C257.579 133.36 257.534 133.599 257.494 133.843C257.485 133.891 257.478 133.939 257.47 133.988C257.248 135.231 257.047 136.513 256.862 137.84C256.251 142.276 254.932 147.69 253.042 153.405C252.913 153.799 252.781 154.198 252.643 154.595C251.317 158.485 249.727 162.494 247.934 166.416C246.631 169.271 245.21 172.075 243.699 174.753C243.478 175.152 243.249 175.545 243.019 175.935C238.126 184.31 232.303 191.276 226.086 194.269Z" fill="#0958D1"/>
<path d="M247.927 166.417C248.824 167.933 249.624 169.16 250.071 169.976C251.06 171.761 252.782 164.402 254.448 155.248C254.524 154.829 254.601 154.403 254.676 153.976C255.895 147.168 257.062 139.57 257.873 134.088C257.902 133.895 257.93 133.706 257.958 133.518C257.991 133.292 258.022 133.066 258.059 132.849C258.437 130.244 258.719 128.236 258.868 127.207V127.192C258.884 127.075 258.901 126.966 258.908 126.874C258.75 127.727 258.224 129.801 256.531 132.5C256.305 132.858 256.06 133.228 255.79 133.61C255.299 134.305 254.733 135.033 254.08 135.785C252.613 137.463 250.71 139.268 248.248 141.09C245.911 142.815 244.448 144.774 243.623 146.85C243.45 147.284 243.305 147.723 243.189 148.165C241.46 154.596 245.197 161.832 247.927 166.417Z" fill="#0958D1"/>
<path d="M309.874 114.026C310.565 123.42 312.66 137.894 324.798 138.574C325.57 138.616 325.576 139.824 324.798 139.78C319.708 139.495 315.477 136.266 312.867 132.014C309.583 126.662 309.116 120.132 308.668 114.026C308.611 113.252 309.817 113.255 309.874 114.026Z" fill="#092BA4"/>
<path d="M255.79 133.61C256.354 133.726 256.913 133.856 257.463 133.987C257.6 134.023 257.737 134.056 257.873 134.088C258.244 134.18 258.61 134.273 258.972 134.366C264.273 135.73 269.348 136.607 274.801 135.609C284.55 133.827 293.282 127.268 297.393 118.215C297.711 117.511 296.673 116.899 296.351 117.607C291.911 127.385 281.956 134.158 271.242 134.842C266.666 135.131 262.402 133.888 258.058 132.851C257.933 132.822 257.805 132.791 257.68 132.759C257.299 132.671 256.913 132.581 256.531 132.502C256.305 132.859 256.06 133.228 255.79 133.61Z" fill="#092BA4"/>
<path d="M323.93 158.446C317.556 159.135 311.628 162.758 308.252 168.239C304.549 174.25 304.322 181.933 307.348 188.262C307.682 188.959 306.642 189.572 306.307 188.871C303.097 182.157 303.273 174.025 307.211 167.631C310.826 161.76 317.117 157.975 323.93 157.24C324.701 157.157 324.695 158.364 323.93 158.446Z" fill="#092BA4"/>
<path d="M243.189 148.165C245.642 150.869 248.719 152.963 252.133 154.395C252.302 154.463 252.467 154.531 252.635 154.596C253.239 154.838 253.842 155.055 254.445 155.248C264.821 158.57 275.853 155.553 285.651 151.459C295.714 147.256 309.203 141.469 318.728 150.099C319.303 150.619 320.16 149.766 319.585 149.247C315.544 145.587 310.161 144.252 304.801 144.489C293.025 145.015 282.955 152.6 271.507 154.761C265.986 155.803 260.022 155.662 254.676 153.976C254.121 153.803 253.573 153.614 253.036 153.404C249.431 152.017 246.174 149.874 243.624 146.848C243.451 147.285 243.307 147.724 243.189 148.165Z" fill="#092BA4"/>
<path d="M237.466 202.63C237.828 202.856 238.202 203.08 238.584 203.31C242.22 200.652 245.024 196.883 246.37 192.507C248.212 186.505 247.066 179.934 243.691 174.754C243.47 175.153 243.241 175.546 243.012 175.936C245.952 180.743 246.884 186.711 245.204 192.185C243.89 196.464 241.086 200.117 237.466 202.63Z" fill="#092BA4"/>
<path d="M261.992 214.101C262.418 214.25 262.849 214.394 263.288 214.539C262.753 208.518 264.961 202.183 269.489 197.732C278.675 188.698 292.784 189.088 303.292 195.539C303.956 195.945 304.564 194.899 303.9 194.498C298.663 191.279 292.61 189.389 286.433 189.511C276.743 189.7 267.264 195.335 263.472 204.444C262.189 207.525 261.715 210.851 261.992 214.101Z" fill="#092BA4"/>
<path d="M289.375 220.496C289.785 220.549 290.199 220.605 290.613 220.654C292.025 217.545 294.277 214.826 297.213 212.948C300.97 210.547 305.495 209.735 309.806 210.418C309.734 210.019 309.674 209.609 309.629 209.183C305.153 208.552 300.487 209.425 296.606 211.907C293.355 213.984 290.874 217.021 289.375 220.496Z" fill="#092BA4"/>
<path d="M277.652 162.064C283.057 163.244 287.567 168.422 285.939 174.148C284.282 179.983 276.852 181.356 271.649 180.342C266.369 179.314 262.259 174.601 263.839 169.099C265.603 162.953 271.784 161.276 277.492 162.042C278.249 162.144 278.259 163.352 277.492 163.248C272.873 162.628 267.826 163.376 265.553 167.994C263.149 172.878 266.301 177.784 271.304 179.031C275.851 180.165 282.992 179.207 284.686 174.106C286.406 168.928 282.169 164.283 277.331 163.227C276.573 163.061 276.894 161.898 277.652 162.064Z" fill="#092BA4"/>
<path d="M254.081 135.788C255.211 135.282 256.345 134.625 257.486 133.844C257.643 133.739 257.799 133.628 257.957 133.518C266.559 127.413 275.184 114.673 279.346 107.735C279.102 107.776 278.857 107.823 278.613 107.863C273.968 108.666 268.998 109.486 264.767 110.115C264.767 110.115 264.761 110.12 264.755 110.137C264.528 110.58 261.368 116.796 258.865 127.19C258.889 127.021 258.912 126.877 258.923 126.766C258.75 127.826 257.894 131.399 254.081 135.788Z" fill="#FF6665"/>
<path d="M262.648 119.492C261.04 124.722 258.514 129.525 255.134 133.826C254.775 134.283 254.138 133.638 254.494 133.186C257.773 129.012 260.215 124.325 261.775 119.251C261.945 118.696 262.819 118.933 262.648 119.492Z" fill="#CF3736"/>
<path d="M322.916 175.76C333.631 159.149 345.608 144.931 345.603 139.071C345.597 134.146 337.507 126.377 329.486 119.882C324.781 122.59 312.625 136.563 310.423 148.506C307.156 166.227 317.305 170.621 322.916 175.76Z" fill="#FF6665"/>
<path d="M333.748 159.085C329.184 157.701 324.545 156.64 319.834 155.901C319.069 155.78 319.394 154.618 320.155 154.737C324.866 155.476 329.505 156.538 334.069 157.921C334.809 158.147 334.493 159.312 333.748 159.085Z" fill="#CF3736"/>
<path d="M316.41 99.7826C316.41 99.7826 319.958 90.3785 333.406 84.1715C346.854 77.9646 350.155 56.138 337.192 44.3087C333.866 41.2734 330.291 40.3113 328.608 38.3004C317.791 25.3813 301.365 32.2269 293.372 37.8676C283.929 44.5315 288.418 53.2502 288.937 60.9699C289.456 68.6882 316.41 99.7826 316.41 99.7826Z" fill="#222943"/>
<path d="M317.233 115.255C311.128 120.758 282.102 131.486 289.457 108.356L293.094 100.604L297.063 92.1452L299.84 86.2234L321.662 80.4266L317.233 115.255Z" fill="#FF6665"/>
<path d="M314.8 89.5142C302.668 102.734 293.447 106.093 291.002 105.064L297.063 92.1466L314.8 89.5142Z" fill="#222943"/>
<path d="M328.797 77.7048C325.358 83.4364 323.059 85.0172 316.885 89.8392C311.375 94.1432 303.642 95.0173 299.981 94.3575C286.678 91.9607 282.012 85.0853 288.281 67.8381C292.176 57.1299 290.759 50.2077 294.665 46.7055L294.67 46.7069C294.91 46.5607 295.148 46.4202 295.385 46.2854C301.109 43.0244 307.922 42.234 314.308 43.8517C346.047 51.8921 333.731 69.4799 328.797 77.7048Z" fill="#FF6665"/>
<path d="M306.511 69.409C305.422 68.5107 303.975 68.6541 303.01 69.6474C302.468 70.2051 301.615 69.3522 302.157 68.7945C303.612 67.2989 305.776 67.2449 307.364 68.5561C307.962 69.0514 307.105 69.9 306.511 69.409Z" fill="#222943"/>
<path d="M295.796 67.191C295.708 66.2317 294.83 65.5463 293.876 65.7038C293.117 65.8287 292.791 64.6665 293.556 64.5402C295.325 64.2493 296.841 65.4016 297.004 67.191C297.073 67.9644 295.866 67.9601 295.796 67.191Z" fill="#222943"/>
<path d="M296.856 72.8261C296.853 72.8247 296.85 72.8233 296.847 72.8233C296.095 72.5381 294.777 71.5958 295.167 70.0774C295.535 68.6456 296.934 68.3589 297.827 68.41L299.014 66.7199C299.159 66.5142 299.441 66.4659 299.647 66.6092C299.853 66.754 299.903 67.0364 299.758 67.2407L298.418 69.1494C298.319 69.2913 298.147 69.3636 297.976 69.3367C297.912 69.3267 296.356 69.1068 296.048 70.3031C295.763 71.4142 297.116 71.952 297.174 71.9747C297.407 72.0655 297.524 72.3266 297.433 72.5608C297.343 72.7907 297.087 72.9085 296.856 72.8261Z" fill="#222943"/>
<path d="M298.247 41.4649C298.247 41.4649 288.242 45.8583 290.963 48.6894C293.683 51.5204 310.507 39.7337 318.434 59.5551C320.408 64.492 316.564 68.7932 324.072 72.5594C331.582 76.3255 333.368 75.8189 336.573 69.2558C339.775 62.6926 335.193 45.5334 318.803 41.3202C302.412 37.107 298.247 41.4649 298.247 41.4649Z" fill="#222943"/>
<path d="M307.262 46.4175C307.262 46.4175 304.966 62.765 321.711 67.2677C338.455 71.769 330.59 45.251 307.262 46.4175Z" fill="#222943"/>
<path d="M331.14 56.9553C329.2 56.7368 325.394 57.0845 323.511 58.1516C322.056 62.8558 315.554 74.6482 320.613 77.1854C328.123 80.9516 326.684 86.5697 333.853 74.0181C336.573 69.2572 337.889 62.2768 336.404 57.7486C334.667 57.4265 332.921 57.1568 331.14 56.9553Z" fill="#222943"/>
<path d="M293.728 84.1799C294.892 84.9859 296.261 85.3904 297.583 84.7206C298.252 84.38 297.693 83.3583 297.024 83.6974C296.078 84.1771 295.145 83.7471 294.342 83.1894C293.726 82.7594 293.114 83.7542 293.728 84.1799Z" fill="#CF3736"/>
<path d="M312.123 75.108C311.847 76.0431 310.17 76.3738 308.376 75.8473C306.581 75.3208 305.349 74.1345 305.625 73.1993C305.9 72.2642 307.576 71.9335 309.371 72.46C311.165 72.9879 312.396 74.1728 312.123 75.108Z" fill="#CF3736"/>
<path d="M293.252 70.6068C292.976 71.5448 291.299 71.874 289.507 71.3475C288.662 71.0992 287.942 70.7047 287.446 70.2619C287.7 69.4758 287.977 68.6683 288.278 67.8396C288.288 67.8041 288.303 67.7701 288.312 67.7389C288.943 67.6651 289.713 67.7318 290.5 67.9631C292.292 68.4895 293.527 69.673 293.252 70.6068Z" fill="#CF3736"/>
<path d="M305.387 62.5138C306.798 62.4017 308.426 63.1155 308.56 64.7006C308.684 66.1793 311.017 66.2374 310.891 64.7389C310.655 61.9462 308.232 59.9581 305.425 60.1809C303.945 60.3001 303.887 62.633 305.387 62.5138Z" fill="#222943"/>
<path d="M293.142 61.7162C294.313 60.9074 295.841 59.6912 297.289 60.5313C298.586 61.2848 299.816 59.3038 298.516 58.5489C296.212 57.2107 294.001 58.3034 292.024 59.6699C290.801 60.5157 291.908 62.5705 293.142 61.7162Z" fill="#222943"/>
<path d="M291.854 74.6638C291.854 74.6638 295.898 76.6618 304.054 76.8959C304.054 76.8959 301.369 83.7557 295.663 82.0443C290.822 80.594 291.854 74.6638 291.854 74.6638Z" fill="white"/>
<path d="M315.056 79.0643C314.952 76.5752 316.1 74.204 317.997 72.5863C320.454 70.4889 324.756 67.4166 327.646 68.7094C331.891 70.6109 331.271 74.6978 329.669 78.5775C328.068 82.4572 323.908 86.9386 318.632 84.4851C315.994 83.2576 315.139 81.1035 315.056 79.0643Z" fill="#FF6665"/>
<path d="M322.966 82.9312C322.966 83.9615 323.8 84.7959 324.831 84.7959C325.859 84.7959 326.694 83.9615 326.694 82.9312C326.694 81.9024 325.859 81.0666 324.831 81.0666C323.8 81.0666 322.966 81.9024 322.966 82.9312Z" fill="white"/>
<path d="M321.109 80.0052C321.333 78.2994 321.684 76.5455 322.72 75.125C323.645 73.8564 325.772 72.2259 327.427 73.3029C327.982 73.6634 328.64 72.8616 328.081 72.4969C326.486 71.4596 324.549 72.0456 323.143 73.1795C321.113 74.8142 320.407 77.3771 320.082 79.8561C319.996 80.516 321.022 80.6693 321.109 80.0052Z" fill="#222943"/>
<path d="M311.061 58.3517C311.061 58.3517 310.91 62.4968 313.89 68.7335C315 71.0551 315.921 73.8081 313.086 78.386C307.858 86.8322 316.176 92.2714 316.176 92.2714C316.176 92.2714 312.683 85.223 316.303 81.2014C321.041 75.9381 323.296 63.9556 319.884 61.9689C316.477 59.9808 311.061 58.3517 311.061 58.3517Z" fill="#222943"/>
<path d="M309.202 183.3C311.233 178.914 313.492 174.505 316.121 170.351C316.358 170.612 316.597 170.87 316.836 171.127C314.285 175.191 312.085 179.495 310.102 183.78C306.589 191.366 303.371 199.538 302.317 207.888C302.234 208.539 301.241 208.309 301.322 207.665C302.386 199.233 305.654 190.961 309.202 183.3Z" fill="#222943"/>
<path d="M343.143 134.305C343.143 134.305 369.291 186.219 371.554 183.236C374.093 179.891 417.231 122.153 417.231 122.153L427.785 128.983C427.785 128.983 391.983 220.413 372.003 220.354C358.725 220.316 315.049 149.451 315.049 149.451L343.143 134.305Z" fill="#FF6665"/>
<path d="M419.498 121.3C418.774 121.413 418.077 121.605 417.405 121.857C418.829 120.308 420.585 118.48 422.397 116.781C426.699 112.751 428.208 106.459 430.402 110.572C432.418 114.351 428.746 120.218 428.639 122.591C425.642 121.836 422.612 120.813 419.498 121.3Z" fill="#D23E3C"/>
<path d="M451.36 120.275C451.36 120.275 456.955 114.125 455.302 112.419C453.649 110.715 449.795 115.892 446.935 117.596C444.076 119.3 437.047 124.249 437.047 124.249L451.36 120.275Z" fill="#D23E3C"/>
<path d="M415.894 120.941C417.048 120.25 418.311 119.751 419.675 119.546C422.802 119.075 425.856 120.207 428.866 120.934C430.34 123.799 435.978 122.465 445.066 119.449C457.504 115.323 458.758 117.501 458.334 118.28C456.705 121.27 450.626 122.661 441.573 127.566C432.521 132.472 421.348 133.472 415.406 133.027C415.406 133.027 412.808 132.138 413.001 127.819C412.999 127.816 412.989 123.668 415.894 120.941Z" fill="#FF6665"/>
<path d="M327.491 169.145C323.492 162.919 319.494 156.695 315.495 150.47C315.05 149.776 316.155 149.135 316.598 149.826C320.597 156.051 324.594 162.275 328.593 168.5C329.039 169.194 327.935 169.836 327.491 169.145Z" fill="#CF3736"/>
<path d="M371.225 183.46C372.486 187.31 372.309 191.353 370.72 195.079C370.415 195.795 369.32 195.285 369.624 194.573C371.091 191.135 371.25 187.414 370.087 183.863C369.846 183.124 370.982 182.719 371.225 183.46Z" fill="#CF3736"/>
<path d="M372.046 186.392C373.33 187.36 374.407 188.522 375.278 189.873C375.698 190.523 374.705 191.208 374.282 190.553C373.465 189.287 372.469 188.218 371.265 187.311C370.645 186.845 371.427 185.925 372.046 186.392Z" fill="#CF3736"/>
<path d="M317.797 59.4302C319.887 60.3909 320.391 71.2226 311.568 75.7579C306.954 78.1306 300.688 68.8741 296.509 68.9904C292.33 69.1068 286.867 74.5829 282.845 67.428C281.05 64.2366 281.927 53.4971 284.609 51.6524C287.29 49.8076 316.003 58.3461 317.797 59.4302Z" fill="#0958D1"/>
<path d="M318.82 62.8657C318.82 62.8657 327.546 66.1324 331.769 62.6841C331.769 62.6841 332.271 64.316 331.704 67.2435C331.704 67.2435 326.262 69.9312 317.702 66.7171L318.82 62.8657Z" fill="#0958D1"/>
<path d="M312.415 63.4234C307.711 62.1562 295.739 58.9647 286.709 56.8375C285.538 56.5622 284.386 57.3569 284.226 58.5475L284.213 58.6412C284.074 59.6714 284.731 60.6406 285.74 60.8918C290.23 62.0043 302.336 65.0156 311.372 67.3627C312.432 67.638 313.519 67.0249 313.834 65.9748C314.165 64.8751 313.522 63.7228 312.415 63.4234Z" fill="#0980F7"/>
<path d="M63.3147 536.553L66.0619 552.143L66.2805 553.366L69.5174 571.736L69.8011 573.355L72.7954 590.337C73.0508 591.792 73.6596 593.108 74.5295 594.204C74.8388 594.6 75.1808 594.966 75.5554 595.295C77.1036 596.683 79.1428 597.51 81.3466 597.51H120.24C121.216 597.51 122.163 597.35 123.046 597.045C123.437 596.913 123.82 596.753 124.182 596.567C126.546 595.36 128.305 593.094 128.791 590.336L130.047 583.219L130.352 581.498L131.378 575.682L131.621 574.282L135.942 549.804L136.161 548.561L138.278 536.555C138.278 534.693 112.259 533.927 90.8841 534.26C90.4229 534.269 89.9617 534.277 89.5048 534.284C87.836 534.313 86.1969 534.349 84.6076 534.395C84.179 534.408 83.759 534.416 83.339 534.432H83.3347C71.9354 534.775 63.3147 535.483 63.3147 536.553Z" fill="#D1D0F4"/>
<path d="M123.584 563.561C124.025 568.627 127.068 571.959 130.746 575.139L131.376 575.682L131.619 574.282C130.593 573.396 129.577 572.515 128.666 571.58C124.641 567.445 123.476 561.11 126.397 555.986C128.382 552.501 132.043 550.294 135.94 549.803L136.158 548.56C128.827 549.326 122.9 555.698 123.584 563.561Z" fill="#B1ABDE"/>
<path d="M72.2478 549.149C75.662 546.83 78.4306 543.641 80.5138 540.091C80.8984 539.438 81.3141 538.707 81.7271 537.93H83.0752C82.7885 538.503 82.4977 539.056 82.2153 539.58C79.8639 543.962 76.5277 547.904 72.3102 550.585C70.4442 551.771 68.405 552.718 66.2806 553.365L66.0621 552.141C68.2574 551.459 70.3491 550.437 72.2478 549.149Z" fill="#B1ABDE"/>
<path d="M86.1442 560.525C92.7258 558.226 99.9332 557.873 106.252 554.821C112.378 551.859 118.138 544.626 114.463 537.931H115.82C117.595 541.882 116.728 546.682 114.128 550.17C110.59 554.923 104.775 557.144 99.218 558.51C92.7017 560.121 86.2151 561.208 80.2466 564.462C76.2136 566.657 72.4999 569.63 69.8009 573.354L69.5171 571.734C70.2507 570.775 71.0539 569.864 71.9139 569.024C75.9043 565.122 80.8965 562.353 86.1442 560.525Z" fill="#B1ABDE"/>
<path d="M74.5296 594.204C74.8389 594.6 75.1809 594.966 75.5555 595.295C77.0214 585.423 84.9469 576.917 94.7327 573.866C106.125 570.315 123.131 572.301 130.046 583.219L130.351 581.498C127.489 577.642 123.254 574.986 118.708 573.318C107.826 569.328 94.4077 570.369 84.988 577.425C79.5786 581.476 75.7528 587.618 74.5296 594.204Z" fill="#B1ABDE"/>
<path d="M89.7321 597.51H90.9922C91.3214 596.122 91.8607 594.776 92.5858 593.523C95.1231 589.145 99.8599 586.632 104.848 586.311C112.817 585.804 119.375 590.5 123.044 597.045C123.436 596.913 123.819 596.752 124.181 596.567C120.07 589.173 112.43 584.001 103.471 585.215C98.3472 585.911 93.6941 588.782 91.2391 593.403C90.548 594.71 90.0414 596.094 89.7321 597.51Z" fill="#B1ABDE"/>
<path d="M89.4952 537.931C88.6437 541.497 89.227 545.229 92.8867 547.239C99.0057 550.595 102.866 542.781 104.695 537.931H106.009C104.001 543.376 99.8572 551.73 92.8087 548.568C88.3174 546.553 87.395 542.147 88.279 537.931H89.4952Z" fill="#B1ABDE"/>
<path d="M100.509 539.437C82.8936 539.437 68.6138 538.746 68.6138 537.893C68.6138 537.04 82.8936 536.349 100.509 536.349C118.124 536.349 132.403 537.04 132.403 537.893C132.403 538.746 118.124 539.437 100.509 539.437Z" fill="#B1ABDE"/>
<path d="M123.442 485.224C123.442 485.224 156.29 478.731 165.458 455.814C174.625 432.897 141.108 415.709 123.442 428.015C104.543 441.18 123.442 485.224 123.442 485.224Z" fill="#D1D0F4"/>
<path d="M104.819 536.833C109.45 516.214 120.405 489.998 129.333 470.573C140.287 446.741 150.629 427.716 150.733 427.526C150.89 427.237 151.251 427.131 151.539 427.289C151.827 427.446 151.933 427.807 151.776 428.095C151.672 428.283 141.35 447.273 130.413 471.069C121.546 490.363 110.671 516.366 106.035 536.833H104.819Z" fill="#B1ABDE"/>
<path d="M124.675 483.007C124.886 483.007 125.092 482.893 125.199 482.693C139.486 456.081 162.687 436.775 162.92 436.583C163.174 436.375 163.21 436 163.001 435.746C162.792 435.494 162.418 435.457 162.164 435.665C161.93 435.858 138.553 455.306 124.151 482.13C123.997 482.419 124.105 482.779 124.394 482.934C124.483 482.984 124.58 483.007 124.675 483.007Z" fill="#B1ABDE"/>
<path d="M124.026 484.912C124.194 484.912 124.361 484.841 124.479 484.702C134.899 472.437 145.569 464.813 152.687 460.575C160.401 455.983 165.72 454.272 165.772 454.255C166.086 454.156 166.259 453.822 166.159 453.508C166.06 453.196 165.727 453.023 165.413 453.121C165.193 453.191 159.941 454.878 152.118 459.531C144.913 463.815 134.113 471.526 123.574 483.932C123.361 484.181 123.392 484.558 123.642 484.769C123.754 484.865 123.89 484.912 124.026 484.912Z" fill="#B1ABDE"/>
<path d="M126.917 477.936C127.164 477.936 127.395 477.78 127.48 477.533C135.49 454.028 132.544 425.461 132.512 425.175C132.477 424.849 132.186 424.614 131.858 424.648C131.532 424.683 131.295 424.975 131.33 425.302C131.36 425.586 134.278 453.897 126.355 477.148C126.249 477.459 126.415 477.797 126.725 477.903C126.789 477.926 126.853 477.936 126.917 477.936Z" fill="#B1ABDE"/>
<path d="M124.902 482.589C125.187 482.589 125.44 482.382 125.488 482.091C127.939 467.212 126.055 455.075 124.045 447.513C121.861 439.301 119.13 434.676 119.015 434.484C118.848 434.202 118.483 434.111 118.201 434.279C117.919 434.446 117.826 434.811 117.995 435.093C118.022 435.14 120.769 439.8 122.909 447.868C124.883 455.308 126.729 467.251 124.316 481.898C124.262 482.222 124.482 482.528 124.805 482.581C124.838 482.586 124.871 482.589 124.902 482.589Z" fill="#B1ABDE"/>
<path d="M88.7909 491.211C88.7909 491.211 55.6161 486.673 45.108 464.34C34.6013 442.006 67.041 422.864 85.4036 434.103C105.05 446.125 88.7909 491.211 88.7909 491.211Z" fill="#D1D0F4"/>
<path d="M57.2791 435.062C57.5445 434.87 57.9163 434.929 58.1093 435.194C58.2172 435.343 69.0531 450.358 79.8152 471.021C86.1385 483.162 91.2003 494.853 94.8629 505.767C98.6248 516.98 100.907 527.397 101.677 536.831H100.478C98.5638 513.862 87.8428 489.013 78.7694 471.586C68.0484 450.997 57.255 436.04 57.1472 435.892C56.9542 435.627 57.0138 435.255 57.2791 435.062Z" fill="#B1ABDE"/>
<path d="M87.3928 489.071C87.4993 489.071 87.6071 489.043 87.7036 488.983C87.9832 488.812 88.0711 488.446 87.898 488.166C71.935 462.243 47.4478 444.212 47.2023 444.033C46.9369 443.839 46.5651 443.899 46.3721 444.162C46.1791 444.428 46.2373 444.8 46.5012 444.993C46.7453 445.17 71.0481 463.07 86.8848 488.789C86.9998 488.971 87.1942 489.071 87.3928 489.071Z" fill="#B1ABDE"/>
<path d="M88.1541 490.935C88.3017 490.935 88.4493 490.879 88.5656 490.77C88.8026 490.543 88.8111 490.167 88.5841 489.93C77.3281 478.169 66.0906 471.11 58.6448 467.261C50.5604 463.08 45.2177 461.706 44.9935 461.65C44.677 461.569 44.3521 461.762 44.2726 462.08C44.1917 462.397 44.3847 462.721 44.7026 462.802C44.7565 462.815 50.1659 464.21 58.1396 468.338C65.4946 472.146 76.5987 479.125 87.7256 490.752C87.8419 490.874 87.998 490.935 88.1541 490.935Z" fill="#B1ABDE"/>
<path d="M84.8559 484.143C84.9311 484.143 85.0063 484.129 85.0801 484.099C85.3838 483.976 85.5299 483.628 85.4051 483.324C76.1202 460.582 77.3562 432.147 77.3704 431.862C77.386 431.534 77.1334 431.256 76.8056 431.241C76.482 431.222 76.1996 431.478 76.184 431.805C76.1698 432.092 74.9197 460.784 84.3067 483.773C84.399 484.003 84.6217 484.143 84.8559 484.143Z" fill="#B1ABDE"/>
<path d="M87.1425 488.668C87.1865 488.668 87.2305 488.664 87.2745 488.654C87.5952 488.582 87.7952 488.264 87.7229 487.943C84.4477 473.465 85.5829 461.432 87.1127 453.889C88.7716 445.709 91.2379 440.894 91.262 440.846C91.4139 440.555 91.2989 440.196 91.008 440.044C90.7171 439.894 90.3581 440.007 90.2062 440.298C90.1026 440.497 87.6519 445.275 85.9576 453.602C84.398 461.271 83.2358 473.497 86.5635 488.206C86.626 488.481 86.8714 488.668 87.1425 488.668Z" fill="#B1ABDE"/>
<path d="M101.566 447.994C101.566 447.994 129.674 429.799 129.704 405.116C129.732 380.433 92.2352 376.878 80.3818 394.85C67.6997 414.078 101.566 447.994 101.566 447.994Z" fill="#D1D0F4"/>
<path d="M102.798 432.262C101.621 455.103 101.167 486.036 105.266 536.831H104.054C99.9816 485.913 100.436 455.024 101.612 432.2C102.963 406.005 105.525 384.502 105.55 384.29C105.59 383.963 105.888 383.733 106.211 383.77C106.538 383.81 106.769 384.105 106.731 384.432C106.705 384.646 104.148 406.109 102.798 432.262Z" fill="#B1ABDE"/>
<path d="M101.67 445.519C101.968 445.519 102.225 445.295 102.26 444.993C105.677 414.982 120.081 388.457 120.226 388.193C120.383 387.905 120.278 387.545 119.99 387.386C119.702 387.227 119.342 387.333 119.183 387.62C119.036 387.887 104.522 414.608 101.078 444.858C101.041 445.184 101.276 445.479 101.602 445.516C101.625 445.518 101.647 445.519 101.67 445.519Z" fill="#B1ABDE"/>
<path d="M101.771 447.53C102.02 447.53 102.251 447.373 102.335 447.126C107.472 431.875 114.561 420.84 119.603 414.269C125.069 407.146 129.375 403.587 129.418 403.552C129.672 403.343 129.708 402.97 129.501 402.716C129.293 402.462 128.919 402.425 128.665 402.632C128.487 402.779 124.234 406.291 118.689 413.51C113.582 420.158 106.406 431.32 101.209 446.747C101.104 447.058 101.272 447.395 101.583 447.499C101.645 447.52 101.709 447.53 101.771 447.53Z" fill="#B1ABDE"/>
<path d="M101.873 439.979C101.883 439.979 101.893 439.979 101.905 439.978C102.232 439.961 102.485 439.681 102.468 439.353C101.204 414.554 87.8885 389.109 87.7551 388.855C87.6019 388.564 87.2414 388.453 86.9519 388.608C86.661 388.761 86.5503 389.12 86.7036 389.411C86.837 389.664 100.03 414.883 101.28 439.414C101.296 439.732 101.558 439.979 101.873 439.979Z" fill="#B1ABDE"/>
<path d="M101.724 445.047C101.767 445.047 101.809 445.042 101.852 445.032C102.173 444.961 102.376 444.645 102.305 444.324C99.0721 429.596 92.8084 418.936 88.1226 412.587C83.0353 405.693 78.771 402.334 78.5922 402.195C78.334 401.994 77.9607 402.039 77.7578 402.299C77.5563 402.557 77.6018 402.93 77.86 403.133C77.9026 403.167 82.2009 406.556 87.1946 413.333C91.8009 419.584 97.9595 430.078 101.142 444.58C101.205 444.858 101.45 445.047 101.724 445.047Z" fill="#B1ABDE"/>
<path d="M398.011 493.749C387.298 483.035 387.298 465.664 398.011 454.951C408.725 444.237 426.096 444.237 436.809 454.951C447.523 465.664 447.523 483.035 436.809 493.749C426.096 504.463 408.725 504.463 398.011 493.749Z" fill="#0958D1"/>
<path d="M406.629 463.853C405.123 472.85 411.196 481.363 420.192 482.869C429.189 484.374 437.702 478.302 439.208 469.305C440.713 460.309 434.641 451.796 425.645 450.29C416.648 448.785 408.135 454.857 406.629 463.853Z" fill="#0980F7"/>
<path d="M138.05 161.458C123.28 158.081 114.044 143.37 117.422 128.6C120.799 113.83 135.51 104.594 150.28 107.972C165.05 111.349 174.286 126.06 170.908 140.83C167.531 155.6 152.82 164.836 138.05 161.458Z" fill="#0958D1"/>
<path d="M154.921 124.213C156.426 133.21 150.354 141.723 141.357 143.228C132.361 144.734 123.848 138.662 122.342 129.665C120.836 120.668 126.909 112.155 135.905 110.65C144.901 109.144 153.415 115.218 154.921 124.213Z" fill="#0980F7"/>
<path d="M368.253 29.63C380.105 31.7217 381.801 33.4189 383.893 45.2694C385.986 33.4189 387.682 31.7217 399.532 29.63C387.68 27.5383 385.984 25.8411 383.893 13.9905C381.801 25.8411 380.105 27.5369 368.253 29.63Z" fill="#FFB900"/>
<path d="M128.503 366.417C140.355 368.51 142.051 370.205 144.143 382.056C146.234 370.204 147.932 368.508 159.782 366.417C147.93 364.325 146.234 362.628 144.143 350.777C142.051 362.629 140.355 364.325 128.503 366.417Z" fill="#FFB900"/>
<path d="M130.298 260.805H174.679C175.682 260.805 176.609 260.275 177.121 259.414C177.632 258.551 177.65 257.484 177.169 256.604L155.171 216.413C154.673 215.504 153.719 214.938 152.682 214.938H108.301C107.298 214.938 106.371 215.467 105.859 216.328C105.348 217.191 105.329 218.258 105.811 219.138L127.809 259.329C128.305 260.238 129.26 260.805 130.298 260.805ZM169.89 255.128H131.979L113.087 220.614H150.998L169.89 255.128Z" fill="#057F42"/>
<path d="M133.136 257.257H177.517C178.521 257.257 179.447 256.728 179.959 255.866C180.47 255.003 180.489 253.936 180.008 253.056L158.009 212.866C157.511 211.956 156.558 211.39 155.52 211.39H111.139C110.136 211.39 109.209 211.919 108.697 212.781C108.186 213.644 108.168 214.711 108.649 215.59L130.647 255.781C131.144 256.691 132.099 257.257 133.136 257.257ZM172.728 251.581H134.818L115.926 217.066H153.836L172.728 251.581Z" fill="#14B74E"/>
<path d="M347.118 344.824L325.12 385.015C324.639 385.895 324.657 386.962 325.168 387.824C325.679 388.687 326.607 389.215 327.611 389.215H371.992C373.029 389.215 373.983 388.649 374.481 387.739L396.479 347.549C396.96 346.669 396.941 345.602 396.431 344.739C395.92 343.876 394.992 343.348 393.988 343.348H349.607C348.57 343.348 347.615 343.915 347.118 344.824ZM370.307 383.539H332.397L351.289 349.025H389.199L370.307 383.539Z" fill="#EB8500"/>
<path d="M344.28 341.276L322.282 381.467C321.801 382.347 321.82 383.414 322.33 384.277C322.841 385.14 323.769 385.668 324.773 385.668H369.154C370.191 385.668 371.145 385.101 371.643 384.192L393.641 344.001C394.122 343.121 394.104 342.054 393.593 341.191C393.082 340.329 392.154 339.801 391.151 339.801H346.769C345.732 339.801 344.777 340.367 344.28 341.276ZM367.469 379.991H329.559L348.451 345.477H386.361L367.469 379.991Z" fill="#FFB900"/>
<path d="M489.601 29.7009H490.738V144.474H489.601V29.7009Z" fill="#222943"/>
<path d="M490.169 105.347C479.242 105.347 470.383 96.4882 470.383 85.5607C470.383 74.6332 479.242 65.7747 490.169 65.7747C501.097 65.7747 509.955 74.6332 509.955 85.5607C509.955 96.4882 501.097 105.347 490.169 105.347Z" fill="#0958D1"/>
<path d="M484.595 79.9342C484.595 83.0135 487.091 85.5096 490.171 85.5096C493.25 85.5096 495.746 83.0135 495.746 79.9342C495.746 76.8548 493.25 74.3587 490.171 74.3587C487.091 74.3587 484.595 76.8548 484.595 79.9342Z" fill="#FBFFFD"/>
<path d="M482.52 96.7613H497.819C497.819 96.7613 499.458 95.1407 497.819 90.0506C496.661 86.4618 492.519 84.3616 490.169 83.4293C487.819 84.3616 483.678 86.4632 482.519 90.0506C480.881 95.1407 482.52 96.7613 482.52 96.7613Z" fill="#FBFFFD"/>
<path d="M490.169 45.2992C479.242 45.2992 470.383 36.4408 470.383 25.5133C470.383 14.5858 479.242 5.72736 490.169 5.72736C501.097 5.72736 509.955 14.5858 509.955 25.5133C509.955 36.4408 501.097 45.2992 490.169 45.2992Z" fill="#14B74E"/>
<path d="M484.595 19.8881C484.595 22.9674 487.091 25.4636 490.171 25.4636C493.25 25.4636 495.746 22.9674 495.746 19.8881C495.746 16.8087 493.25 14.3126 490.171 14.3126C487.091 14.3126 484.595 16.8087 484.595 19.8881Z" fill="#FBFFFD"/>
<path d="M482.52 36.7153H497.819C497.819 36.7153 499.458 35.0947 497.819 30.0045C496.661 26.4157 492.519 24.3155 490.169 23.3832C487.819 24.3155 483.678 26.4172 482.519 30.0045C480.881 35.0947 482.52 36.7153 482.52 36.7153Z" fill="#FBFFFD"/>
<path d="M490.169 165.393C479.242 165.393 470.383 156.534 470.383 145.607C470.383 134.679 479.242 125.821 490.169 125.821C501.097 125.821 509.955 134.679 509.955 145.607C509.955 156.534 501.097 165.393 490.169 165.393Z" fill="#FF6665"/>
<path d="M484.595 139.98C484.595 143.06 487.091 145.556 490.171 145.556C493.25 145.556 495.746 143.06 495.746 139.98C495.746 136.901 493.25 134.405 490.171 134.405C487.091 134.405 484.595 136.901 484.595 139.98Z" fill="#FBFFFD"/>
<path d="M482.52 156.807H497.819C497.819 156.807 499.458 155.187 497.819 150.097C496.661 146.508 492.519 144.408 490.169 143.475C487.819 144.408 483.678 146.509 482.519 150.097C480.881 155.188 482.52 156.807 482.52 156.807Z" fill="#FBFFFD"/>
<g opacity="0.4">
<path d="M-8.18397e-05 109.377C0.656942 104.752 3.09204 94.4526 11.9143 90.7162C23.4371 85.8346 28.5074 93.4181 44.1795 101.253C59.8515 109.089 62.1561 97.4411 73.6788 95.1365C84.0096 93.0704 96.0716 106.563 98.457 109.377H-8.18397e-05Z" fill="#D1D0F4"/>
</g>
<g opacity="0.4">
<path d="M432.562 207.376C433.219 202.751 435.655 192.451 444.477 188.715C456 183.833 461.07 191.417 476.742 199.251C492.414 207.088 494.719 195.44 506.241 193.135C516.572 191.069 528.634 204.562 531.02 207.376H432.562Z" fill="#D1D0F4"/>
</g>
<path d="M79.7157 318.333L94.8926 336.236L110.071 318.333L94.8926 286.363L79.7157 318.333Z" fill="#0958D1"/>
<path d="M79.7167 318.333L94.8936 336.236V286.363L79.7167 318.333Z" fill="#0980F7"/>
<path d="M110.071 318.333L94.8926 326.545L79.7157 318.333L94.8926 336.236L110.071 318.333Z" fill="#092BA4"/>
<path d="M415.827 73.9131L431.004 91.8173L446.182 73.9131L431.004 41.9445L415.827 73.9131Z" fill="#0958D1"/>
<path d="M415.828 73.9131L431.005 91.8174V41.9445L415.828 73.9131Z" fill="#0980F7"/>
<path d="M446.182 73.9131L431.004 82.1266L415.827 73.9131L431.004 91.8174L446.182 73.9131Z" fill="#092BA4"/>
<path d="M485.943 399.281C486.093 399.281 486.247 399.239 486.383 399.153L511.592 383.262C511.819 383.119 511.964 382.873 511.977 382.605C511.991 382.337 511.873 382.077 511.662 381.913L487.285 362.74L511.347 344.057C511.558 343.893 511.676 343.638 511.666 343.371C511.656 343.104 511.517 342.859 511.294 342.713L486.396 326.327C486.014 326.076 485.501 326.181 485.25 326.564C484.999 326.945 485.104 327.459 485.487 327.71L509.42 343.461L485.435 362.084C485.233 362.24 485.116 362.48 485.116 362.736C485.114 362.99 485.232 363.231 485.432 363.388L509.719 382.49L485.501 397.757C485.116 398.001 484.999 398.511 485.243 398.897C485.401 399.144 485.669 399.281 485.943 399.281Z" fill="#09B900"/>
<path d="M485.943 332.883C482.703 332.883 480.076 330.256 480.076 327.016C480.076 323.776 482.703 321.15 485.943 321.15C489.183 321.15 491.809 323.776 491.809 327.016C491.809 330.256 489.183 332.883 485.943 332.883Z" fill="#09B900"/>
<path d="M480.076 362.734C480.076 365.974 482.703 368.599 485.941 368.599C489.181 368.599 491.806 365.973 491.806 362.734C491.806 359.495 489.179 356.869 485.941 356.869C482.703 356.869 480.076 359.495 480.076 362.734Z" fill="#09B900"/>
<path d="M480.076 398.453C480.076 401.693 482.703 404.318 485.941 404.318C489.181 404.318 491.806 401.692 491.806 398.453C491.806 395.214 489.179 392.587 485.941 392.587C482.703 392.587 480.076 395.214 480.076 398.453Z" fill="#09B900"/>
<path d="M511.153 349.277C507.913 349.277 505.288 346.651 505.288 343.412C505.288 340.173 507.913 337.547 511.153 337.547C514.392 337.547 517.018 340.173 517.018 343.412C517.018 346.651 514.392 349.277 511.153 349.277Z" fill="#09B900"/>
<path d="M511.153 388.436C507.913 388.436 505.288 385.81 505.288 382.571C505.288 379.332 507.913 376.706 511.153 376.706C514.392 376.706 517.018 379.332 517.018 382.571C517.018 385.81 514.392 388.436 511.153 388.436Z" fill="#09B900"/>
<path d="M38.3647 206.792C38.2143 206.792 38.061 206.751 37.9248 206.665L12.7152 190.773C12.4882 190.629 12.3448 190.384 12.3306 190.116C12.3165 189.847 12.4342 189.588 12.6457 189.423L37.0223 170.25L12.9593 151.567C12.7478 151.404 12.6301 151.148 12.64 150.881C12.6499 150.615 12.789 150.369 13.0118 150.223L37.9106 133.837C38.2923 133.586 38.8046 133.691 39.0558 134.073C39.307 134.454 39.2005 134.968 38.8188 135.219L14.8864 150.969L38.8713 169.593C39.0728 169.749 39.1906 169.989 39.1906 170.244C39.192 170.498 39.0742 170.74 38.8741 170.897L14.5869 189.999L38.8046 205.265C39.192 205.51 39.3069 206.02 39.0628 206.406C38.9082 206.655 38.6386 206.791 38.3647 206.792Z" fill="#EB8500"/>
<path d="M44.2314 134.527C44.2314 137.766 41.6047 140.392 38.3664 140.392C35.1267 140.392 32.5 137.765 32.5 134.527C32.5 131.288 35.1267 128.662 38.3664 128.662C41.6047 128.662 44.2314 131.287 44.2314 134.527Z" fill="#FFB900"/>
<path d="M44.2314 170.246C44.2314 173.486 41.6047 176.111 38.3664 176.111C35.1267 176.111 32.5 173.484 32.5 170.246C32.5 167.006 35.1267 164.381 38.3664 164.381C41.6047 164.38 44.2314 167.006 44.2314 170.246Z" fill="#FFB900"/>
<path d="M44.2314 205.964C44.2314 209.203 41.6047 211.829 38.3664 211.829C35.1267 211.829 32.5 209.202 32.5 205.964C32.5 202.724 35.1267 200.097 38.3664 200.097C41.6047 200.099 44.2314 202.724 44.2314 205.964Z" fill="#FFB900"/>
<path d="M13.1561 156.79C9.91615 156.79 7.28968 154.164 7.28968 150.924C7.28968 147.684 9.91615 145.058 13.1561 145.058C16.396 145.058 19.0225 147.684 19.0225 150.924C19.0225 154.164 16.396 156.79 13.1561 156.79Z" fill="#FFB900"/>
<path d="M13.1561 195.949C9.91615 195.949 7.28968 193.323 7.28968 190.083C7.28968 186.843 9.91615 184.216 13.1561 184.216C16.396 184.216 19.0225 186.843 19.0225 190.083C19.0225 193.323 16.396 195.949 13.1561 195.949Z" fill="#FFB900"/>
<path d="M247.688 30.4417H247.742C248.274 30.4417 248.705 30.0103 248.705 29.4782V21.9869C248.705 21.4548 248.274 21.0234 247.742 21.0234H247.688C247.155 21.0234 246.724 21.4548 246.724 21.9869V29.4782C246.724 30.0103 247.155 30.4417 247.688 30.4417Z" fill="#0958D1"/>
<path d="M247.688 43.341H247.742C248.274 43.341 248.705 42.9096 248.705 42.3775V34.8863C248.705 34.3541 248.274 33.9227 247.742 33.9227H247.688C247.155 33.9227 246.724 34.3541 246.724 34.8863V42.3775C246.724 42.9096 247.155 43.341 247.688 43.341Z" fill="#0958D1"/>
<path d="M245.974 32.2099V32.156C245.974 31.6238 245.542 31.1924 245.01 31.1924H237.519C236.987 31.1924 236.555 31.6238 236.555 32.156V32.2099C236.555 32.7421 236.987 33.1734 237.519 33.1734H245.01C245.542 33.1734 245.974 32.7421 245.974 32.2099Z" fill="#0958D1"/>
<path d="M258.873 32.2099V32.156C258.873 31.6238 258.442 31.1924 257.91 31.1924H250.418C249.886 31.1924 249.455 31.6238 249.455 32.156V32.2099C249.455 32.742 249.886 33.1734 250.418 33.1734H257.91C258.442 33.1734 258.873 32.742 258.873 32.2099Z" fill="#0958D1"/>
<path d="M463.492 431.529H463.546C464.078 431.529 464.509 431.097 464.509 430.565V423.074C464.509 422.542 464.078 422.11 463.546 422.11H463.492C462.96 422.11 462.528 422.542 462.528 423.074V430.565C462.528 431.097 462.96 431.529 463.492 431.529Z" fill="#FFB900"/>
<path d="M463.492 444.428H463.546C464.078 444.428 464.509 443.996 464.509 443.464V435.973C464.509 435.441 464.078 435.01 463.546 435.01H463.492C462.96 435.01 462.528 435.441 462.528 435.973V443.464C462.528 443.996 462.96 444.428 463.492 444.428Z" fill="#FFB900"/>
<path d="M461.778 433.297V433.243C461.778 432.711 461.347 432.279 460.815 432.279H453.324C452.791 432.279 452.36 432.711 452.36 433.243V433.297C452.36 433.829 452.791 434.26 453.324 434.26H460.815C461.347 434.26 461.778 433.829 461.778 433.297Z" fill="#FFB900"/>
<path d="M474.677 433.297V433.243C474.677 432.711 474.245 432.279 473.713 432.279H466.222C465.69 432.279 465.258 432.711 465.258 433.243V433.297C465.258 433.829 465.69 434.26 466.222 434.26H473.713C474.245 434.26 474.677 433.829 474.677 433.297Z" fill="#FFB900"/>
<path d="M23.9928 296.566H24.0467C24.5789 296.566 25.0103 296.135 25.0103 295.603V288.111C25.0103 287.579 24.5789 287.148 24.0467 287.148H23.9928C23.4606 287.148 23.0293 287.579 23.0293 288.111V295.603C23.0293 296.135 23.4606 296.566 23.9928 296.566Z" fill="#14B74E"/>
<path d="M23.9928 309.466H24.0467C24.5789 309.466 25.0103 309.034 25.0103 308.502V301.011C25.0103 300.479 24.5789 300.047 24.0467 300.047H23.9928C23.4606 300.047 23.0293 300.479 23.0293 301.011V308.502C23.0293 309.036 23.4606 309.466 23.9928 309.466Z" fill="#14B74E"/>
<path d="M22.2803 298.334V298.28C22.2803 297.748 21.8489 297.317 21.3168 297.317H13.8256C13.2934 297.317 12.862 297.748 12.862 298.28V298.334C12.862 298.867 13.2934 299.298 13.8256 299.298H21.3168C21.8489 299.298 22.2803 298.867 22.2803 298.334Z" fill="#14B74E"/>
<path d="M35.1792 298.334V298.28C35.1792 297.748 34.7478 297.317 34.2157 297.317H26.7245C26.1923 297.317 25.7609 297.748 25.7609 298.28V298.334C25.7609 298.867 26.1923 299.298 26.7245 299.298H34.2157C34.7478 299.298 35.1792 298.867 35.1792 298.334Z" fill="#14B74E"/>
<path d="M378.302 305.455H486.823C490.126 305.455 492.804 302.777 492.804 299.474V239.255C492.804 235.951 490.126 233.273 486.823 233.273H378.303C375 233.273 372.322 235.951 372.322 239.255V299.474C372.32 302.777 375 305.455 378.302 305.455Z" fill="#D1D0F4"/>
<path d="M382.195 297.019V270.766C404.185 268.526 408.801 282.716 422.286 286.897C435.39 290.958 441.845 280.334 462.07 282.716C472.261 283.917 477.411 292.167 479.775 297.017L382.195 297.019Z" fill="#B1ABDE"/>
<path d="M390.162 248.768C390.179 248.686 390.198 248.605 390.216 248.525C392.318 239.435 405.215 239.435 407.318 248.525C407.338 248.605 407.355 248.684 407.372 248.768C409.121 256.905 398.767 264.846 398.767 264.846C398.767 264.846 388.414 256.905 390.162 248.768ZM398.767 254.163C400.738 254.163 402.336 252.567 402.336 250.596C402.336 248.625 400.738 247.028 398.767 247.028C396.796 247.028 395.2 248.625 395.2 250.596C395.2 252.567 396.796 254.163 398.767 254.163Z" fill="#B1ABDE"/>
<path d="M424.558 246.692H477.716C478.853 246.692 479.775 247.614 479.775 248.751C479.775 249.888 478.853 250.81 477.716 250.81H424.558C423.422 250.81 422.499 249.888 422.499 248.751C422.499 247.614 423.42 246.692 424.558 246.692Z" fill="#B1ABDE"/>
<path d="M424.558 255.795H477.716C478.853 255.795 479.775 256.718 479.775 257.854C479.775 258.992 478.853 259.913 477.716 259.913H424.558C423.422 259.913 422.499 258.991 422.499 257.854C422.499 256.718 423.42 255.795 424.558 255.795Z" fill="#B1ABDE"/>
<path d="M424.558 265.802H477.716C478.853 265.802 479.775 266.725 479.775 267.861C479.775 269 478.853 269.92 477.716 269.92H424.558C423.422 269.92 422.499 268.998 422.499 267.861C422.499 266.725 423.42 265.802 424.558 265.802Z" fill="#B1ABDE"/>
</svg>
